<svg width="83" height="83" viewBox="0 0 83 83" fill="none" xmlns="http://www.w3.org/2000/svg">
<path d="M41.5 0C18.5799 0 0 18.5799 0 41.5C0 64.4201 18.5799 83 41.5 83C64.4201 83 83 64.4201 83 41.5C83 18.5799 64.4201 0 41.5 0ZM31.3411 58.7009H22.9374V31.6567H31.3411V58.7009ZM27.0874 28.3367C24.4331 28.3367 22.7169 26.4562 22.7169 24.1305C22.7169 21.7572 24.485 19.933 27.1955 19.933C29.9059 19.933 31.5659 21.7572 31.6178 24.1305C31.6178 26.4562 29.9059 28.3367 27.0874 28.3367ZM62.0339 58.7009H53.6301V43.7133C53.6301 40.2247 52.411 37.8558 49.372 37.8558C47.0506 37.8558 45.6716 39.4596 45.0621 41.0029C44.8373 41.5519 44.7811 42.33 44.7811 43.1038V58.6966H36.373V40.2809C36.373 36.9047 36.2649 34.0819 36.1525 31.6524H43.454L43.8387 35.409H44.0073C45.114 33.6453 47.8244 31.0429 52.3592 31.0429C57.8882 31.0429 62.0339 34.7476 62.0339 42.7104V58.7009Z" fill="url(#paint0_linear_1_2872)"/>
<defs>
<linearGradient id="paint0_linear_1_2872" x1="83" y1="40.717" x2="2.075" y2="40.717" gradientUnits="userSpaceOnUse">
<stop stop-color="#4A8B2C"/>
<stop offset="1" stop-color="#C89211"/>
</linearGradient>
</defs>
</svg>
