<svg width="1756" height="477" viewBox="0 0 1756 477" fill="none" xmlns="http://www.w3.org/2000/svg">
<g style="mix-blend-mode:overlay" opacity="0.2">
<path d="M662.062 3.06244C660.449 6.0004 659.084 6.0004 580.412 6.0004H509.661C503.772 6.0004 498.183 8.59566 494.383 13.0943L471.214 40.5214L448.046 67.9485C444.246 72.4471 438.656 75.0424 432.767 75.0424H335.958H239.149C233.26 75.0424 227.671 77.6376 223.871 82.1363L178.366 136.005L132.987 189.856C129.187 194.365 123.591 196.968 117.693 196.968H50.3075C0.0518551 196.968 -26.3789 197.408 -26.3789 198.437C-26.3789 199.465 0.424118 199.906 51.4243 199.906H119.912C125.818 199.906 131.422 197.296 135.222 192.775L180.476 138.943L225.605 85.1289C229.405 80.5976 235.016 77.9803 240.93 77.9803H337.447H434.008C439.897 77.9803 445.487 75.3851 449.287 70.8864L472.455 43.4593L495.623 16.0322C499.424 11.5336 505.013 8.93835 510.902 8.93835H581.032C659.084 8.93835 660.449 8.93835 662.062 11.8763C663.799 15.1081 669.631 15.8425 671.989 13.0515C672.857 12.0232 673.478 9.52594 673.478 7.46938C673.478 5.4128 672.857 2.91554 671.989 1.88725C669.631 -0.903809 663.799 -0.169312 662.062 3.06244Z" fill="#DAE1E9"/>
<path d="M1275.68 3.06211C1273.57 5.85317 1271.95 6.00007 1220.71 6.00007H1177.25C1171.37 6.00007 1165.78 8.59533 1161.98 13.094L1155.56 20.6899C1145.76 32.2948 1142.78 35.0858 1140.54 34.4983C1135.71 33.0293 1131.73 41.1087 1135.33 45.3687C1138.93 49.6287 1145.63 45.9563 1144.76 39.9335C1144.52 37.73 1147.87 32.7355 1156.8 22.1588L1163.22 14.5629C1167.02 10.0643 1172.61 7.46905 1178.5 7.46905H1221.95C1273.32 7.46905 1274.81 7.61595 1276.3 10.407C1278.28 14.2263 1281.76 14.2263 1284.61 10.407C1286.47 7.90974 1286.6 6.88146 1285.48 3.7966C1283.74 -0.757229 1278.65 -1.19792 1275.68 3.06211Z" fill="#DAE1E9"/>
<path d="M259.395 14.8139C257.41 17.6049 255.673 17.7518 231.103 17.7518H214.287C208.352 17.7518 202.723 20.3878 198.924 24.947L195.738 28.7692C188.789 36.9954 185.687 39.7865 183.081 39.7865C177.001 39.7865 174.023 46.1031 177.869 50.6569C181.84 55.3577 187.052 52.5666 187.052 45.6624C187.052 42.8714 189.658 38.9051 196.731 30.5319L200.293 26.3147C204.093 21.8161 209.683 19.2208 215.572 19.2208H231.972C256.417 19.2208 257.782 19.3677 259.023 22.1588C261.505 27.7409 268.95 24.9498 268.95 18.4863C268.95 11.8759 263.118 9.67244 259.395 14.8139Z" fill="#DAE1E9"/>
<path d="M1490.22 25.3905C1486.63 29.6505 1490.6 37.7299 1495.44 36.2609C1497.67 35.6733 1500.65 38.4644 1510.45 50.0693L1516.87 57.6652C1520.67 62.1638 1526.26 64.7591 1532.15 64.7591H1546.56C1566.17 64.7591 1570.63 65.1998 1571.87 66.9625C1572.74 68.1377 1574.6 69.166 1576.09 69.166C1581.43 69.166 1583.66 62.7025 1579.82 58.2956C1577.21 55.2107 1574.73 55.3576 1572.25 58.8832C1570.26 61.6742 1568.52 61.8211 1546.44 61.8211H1532.15C1526.26 61.8211 1520.67 59.2259 1516.87 54.7272L1511.32 48.1596C1503.01 38.1706 1499.9 33.6167 1499.9 30.8257C1499.9 26.4187 1497.79 23.6277 1494.32 23.6277C1492.83 23.6277 1491.09 24.3622 1490.22 25.3905Z" fill="#DAE1E9"/>
<path d="M1463.67 26.7129C1461.06 28.4756 1460.69 36.1143 1462.93 37.7302C1463.79 38.4647 1465.9 38.7585 1467.64 38.6116C1470.12 38.3178 1474.59 42.8716 1491.22 62.5559L1505.7 79.7002C1509.5 84.1988 1515.09 86.7941 1520.98 86.7941H1546.81C1581.31 86.7941 1582.05 86.7941 1584.16 90.0258C1588.5 96.3424 1596.32 89.732 1592.97 82.3871C1591.23 78.4209 1585.4 78.4209 1583.29 82.3871C1581.8 85.1782 1580.44 85.3251 1547.31 85.3251H1522.25C1516.35 85.3251 1510.74 82.7117 1506.94 78.1862L1492.21 60.6463C1475.21 40.6682 1471.49 35.5267 1472.11 33.0295C1472.6 30.826 1471.98 29.2101 1470 27.4473C1466.65 24.6563 1466.52 24.6563 1463.67 26.7129Z" fill="#DAE1E9"/>
<path d="M612.054 32.442C609.944 35.2331 608.207 35.38 566.265 35.38H531.997C526.108 35.38 520.518 37.9752 516.718 42.4739L505.959 55.2112C491.813 72.1044 488.71 75.0424 485.484 75.0424C480.769 75.0424 478.659 77.3928 478.659 82.3873C478.659 87.2349 480.769 89.7322 484.864 89.7322C489.083 89.7322 491.068 87.2349 491.068 81.6528C491.068 77.8335 493.55 74.3079 507.572 57.7085L517.959 45.4118C521.759 40.9132 527.349 38.3179 533.237 38.3179H567.01C608.331 38.3179 610.193 38.4648 611.433 41.109C614.163 47.4256 621.857 45.9566 623.346 38.9055C624.959 31.2668 616.645 26.4192 612.054 32.442Z" fill="#DAE1E9"/>
<path d="M1142.53 80.1835L1108.32 120.808C1104.52 125.321 1098.92 127.925 1093.02 127.925H1066.22C1031.22 127.925 1030.11 127.778 1028.62 124.84C1027.5 122.637 1026.01 122.049 1023.16 122.343C1018.19 122.931 1016.33 126.456 1017.95 131.892C1019.43 137.327 1026.14 138.502 1028.62 133.948C1030.11 131.01 1031.22 130.863 1066.96 130.863H1094.4C1100.29 130.863 1105.88 128.268 1109.68 123.769L1144.02 83.1214L1178.36 42.4735C1182.16 37.9749 1187.75 35.3796 1193.63 35.3796H1310.17H1426.78C1432.63 35.3796 1438.19 37.9392 1441.99 42.3845L1467.64 72.3979L1493.27 102.499C1497.08 106.979 1502.68 109.552 1508.56 109.533L1637.39 109.122C1727.48 108.975 1775.38 108.241 1775.38 107.36C1775.38 106.331 1727.73 105.891 1637.27 105.891H1508.57C1502.68 105.891 1497.09 103.295 1493.29 98.7967L1468.26 69.1661L1443.23 39.5356C1439.43 35.0369 1433.84 32.4417 1427.95 32.4417H1310.05H1192.15C1186.26 32.4417 1180.67 35.0369 1176.87 39.5356L1142.53 80.1835Z" fill="#DAE1E9"/>
<path d="M415.994 42.7247C413.761 45.6626 412.147 45.6626 313.125 45.6626H221.776C215.887 45.6626 210.297 48.2579 206.497 52.7565L177.125 87.5285L147.752 122.3C143.952 126.799 138.362 129.394 132.473 129.394H69.292L1.13614 129.533C-1.60463 129.538 -4.21523 128.364 -6.02946 126.31C-11.4893 120.14 -19.1828 126.75 -16.0806 134.977C-13.9711 140.265 -9.13166 140.852 -5.78129 136.299C-3.98458 133.894 -1.16093 132.476 1.84063 132.47L70.0365 132.332H133.714C139.603 132.332 145.193 129.737 148.993 125.238L178.365 90.4665L207.738 55.6945C211.538 51.1958 217.128 48.6006 223.017 48.6006H313.746C412.147 48.6006 413.761 48.6006 415.994 51.5385C419.22 55.7986 425.053 55.3579 426.79 50.804C430.14 42.1371 421.454 35.5267 415.994 42.7247Z" fill="#DAE1E9"/>
<path d="M161.118 56.8267C159.133 58.5895 158.512 60.2054 159.009 62.4088C159.629 65.1999 157.023 68.8724 144.739 83.2683C140.476 88.2376 136.584 92.809 133.796 96.0714C131.014 99.3258 127.186 101.183 122.905 101.243C110.786 101.412 83.2283 101.521 51.4243 101.631C6.62852 101.777 -26.3789 102.365 -26.3789 103.1C-26.3789 103.834 6.50443 104.422 51.5484 104.422H120.19C126.078 104.422 131.668 101.826 135.468 97.3277L144.987 86.0594C157.644 70.782 160.87 67.6972 163.104 68.4317C166.702 69.4599 171.169 64.4654 170.053 60.793C169.308 58.1488 166.206 54.4764 164.717 54.4764C164.344 54.4764 162.731 55.5047 161.118 56.8267Z" fill="#DAE1E9"/>
<path d="M1206.06 57.7081C1205.19 58.7363 1204.57 60.7929 1204.57 62.5557C1204.57 69.0192 1212.02 71.8102 1214.5 66.2281C1215.87 63.2902 1217.11 63.2902 1315.38 63.2902H1405.62C1411.51 63.2902 1417.1 65.8854 1420.9 70.3841L1432.03 83.5621C1446.92 101.19 1449.03 104.275 1449.03 108.535C1449.03 112.207 1449.77 113.676 1451.88 114.558C1455.11 116.173 1459.33 113.529 1459.95 109.71C1460.57 105.891 1456.47 101.19 1453.37 102.071C1451.26 102.659 1447.17 98.6925 1433.52 82.3869L1422.14 68.9151C1418.34 64.4165 1412.75 61.8212 1406.86 61.8212H1316.25C1217.85 61.8212 1216.24 61.8212 1214.13 58.8832C1211.77 55.5046 1208.3 55.0639 1206.06 57.7081Z" fill="#DAE1E9"/>
<path d="M528.791 72.8385C526.929 76.2172 526.929 76.8048 528.791 80.1834C531.396 84.8841 537.477 85.3248 539.462 80.9179C540.703 77.9799 542.068 77.9799 592.2 77.9799C642.331 77.9799 643.696 77.9799 644.937 80.9179C646.922 85.3248 653.003 84.8841 655.609 80.1834C657.47 76.8048 657.47 76.2172 655.609 72.8385C653.127 68.2847 648.287 67.9909 645.309 72.104C643.2 74.8951 641.587 75.042 592.2 75.042C542.688 75.042 541.199 74.8951 539.71 72.104C537.477 67.844 531.396 68.1378 528.791 72.8385Z" fill="#DAE1E9"/>
<path d="M1344.3 81.7994C1341.94 84.4435 1341.69 89.8787 1343.8 92.376C1346.16 95.1671 1351.99 94.4326 1353.73 91.2008C1355.22 88.5566 1356.71 88.2629 1370.85 88.2629H1377.12C1383.05 88.2629 1388.69 90.9018 1392.48 95.4653L1395.05 98.5457C1402.37 107.213 1403.61 109.563 1403.36 113.089C1402.62 121.756 1413.91 124.547 1416.14 116.173C1417.39 111.62 1413.79 105.891 1409.57 105.891C1407.09 105.891 1403.86 103.246 1397.28 95.6077L1394.33 92.2074C1390.53 87.8355 1385.02 85.3249 1379.23 85.3249H1371.85C1356.71 85.3249 1355.22 85.0311 1353.73 82.3869C1351.87 78.8614 1347.03 78.5676 1344.3 81.7994Z" fill="#DAE1E9"/>
<path d="M1305.58 86.0595C1303.72 89.4382 1303.72 90.0257 1305.58 93.4044C1307.07 96.0486 1308.68 97.0768 1311.66 97.0768C1315.14 97.0768 1317.99 99.8679 1335.49 120.58L1349.35 136.99C1353.15 141.489 1358.74 144.084 1364.63 144.084H1427.93C1499.16 144.084 1500.52 144.084 1502.14 147.022C1505.24 153.045 1513.55 149.226 1513.55 141.881C1513.55 134.389 1504.12 131.745 1501.15 138.355C1499.9 140.999 1497.67 141.146 1428.18 141.146H1365.87C1359.98 141.146 1354.39 138.551 1350.59 134.052L1336.98 117.936C1323.08 101.484 1317.49 93.8451 1317.49 91.4947C1317.49 82.2402 1309.68 78.7146 1305.58 86.0595Z" fill="#DAE1E9"/>
<path d="M1247.51 87.6754C1243.04 92.8169 1247.51 102.365 1253.47 100.602C1255.57 100.015 1263.89 109.269 1295.78 147.022L1329.5 186.936C1333.3 191.434 1338.88 194.029 1344.77 194.029H1397.78C1457.59 194.029 1460.2 194.176 1461.31 196.821C1463.05 200.493 1465.78 201.521 1469.38 199.905C1473.35 198.143 1474.59 193.295 1472.11 188.888C1469.63 184.334 1464.66 184.04 1461.81 188.154C1459.7 191.092 1458.09 191.092 1398.15 191.092H1346.03C1340.13 191.092 1334.54 188.487 1330.73 183.974L1297.39 144.378C1264.63 105.597 1258.18 97.0769 1258.18 93.8451C1258.3 86.0596 1251.85 82.3871 1247.51 87.6754Z" fill="#DAE1E9"/>
<path d="M1149.35 105.89C1138.81 118.524 1134.96 122.049 1132.35 122.049C1128.76 122.049 1125.16 125.428 1125.16 128.807C1125.16 133.801 1127.64 136.739 1131.98 136.739C1136.82 136.739 1139.55 132.773 1138.19 127.778C1137.57 125.428 1140.17 121.609 1151.46 108.828L1159.51 99.5616C1163.3 95.184 1168.82 92.6697 1174.61 92.6697H1191.54H1208.32C1214.21 92.6697 1219.8 95.2649 1223.6 99.7636L1228.77 105.89C1236.96 115.586 1239.82 119.846 1239.57 122.049C1238.45 129.982 1249.25 134.389 1251.98 127.191C1254.21 121.315 1251.6 116.173 1246.52 116.173C1242.92 116.173 1240.81 114.264 1231.25 102.953L1226.08 96.8256C1222.28 92.327 1216.69 89.7317 1210.8 89.7317H1191.54H1172.29C1166.4 89.7317 1160.81 92.327 1157.01 96.8256L1149.35 105.89Z" fill="#DAE1E9"/>
<path d="M492.309 97.8113C490.075 101.043 491.813 107.213 495.411 108.241C497.024 108.682 498.886 108.682 499.506 108.241C500.002 107.8 507.075 115.292 515.141 124.841C525.44 137.033 529.411 142.762 528.915 144.378C526.929 150.401 534.127 155.689 537.973 151.135C541.572 146.875 538.47 138.943 533.382 139.971C529.659 140.705 502.236 108.094 502.236 102.953C502.236 100.896 501.616 98.3989 500.747 97.3706C498.637 94.8734 494.17 95.1671 492.309 97.8113Z" fill="#DAE1E9"/>
<path d="M197.599 164.65L153.917 216.362C150.14 220.833 144.593 223.426 138.739 223.455L60.4821 223.849L-27 224.143L61.1025 224.584L139.878 224.847C145.791 224.866 151.408 222.269 155.224 217.753L198.84 166.119L242.483 114.453C246.283 109.955 251.873 107.359 257.762 107.359H352.089H446.417C452.305 107.359 457.895 109.955 461.695 114.453L482.382 138.942L503.068 163.432C506.868 167.93 512.458 170.525 518.347 170.525H570.732C609.572 170.525 632.528 171.113 632.528 171.994C632.528 174.198 637.368 176.695 639.973 175.667C643.076 174.492 644.565 168.322 642.455 165.384C640.222 162.299 635.258 162.593 633.521 166.119C631.908 169.057 630.543 169.057 571.105 169.057H519.588C513.699 169.057 508.109 166.461 504.309 161.963L483.622 137.473L462.936 112.984C459.136 108.486 453.546 105.89 447.657 105.89H352.089H256.521C250.632 105.89 245.042 108.486 241.242 112.984L197.599 164.65Z" fill="#DAE1E9"/>
<path d="M1159.41 119.552C1157.92 120.874 1157.3 122.931 1157.67 126.456C1157.92 130.57 1158.79 131.892 1161.64 133.067C1164.74 134.242 1165.49 133.948 1168.09 130.423C1169.88 127.932 1172.77 126.456 1175.83 126.456H1189.56C1206.93 126.456 1208.17 126.603 1208.92 129.247C1210.41 134.976 1218.6 134.83 1220.09 129.247C1221.33 124.694 1219.84 119.405 1216.98 118.377C1213.51 117.055 1209.79 118.818 1208.92 122.196C1208.17 124.84 1206.93 124.987 1188.94 124.987C1178.02 124.987 1169.83 124.4 1169.83 123.665C1169.83 121.315 1166.11 117.643 1163.75 117.643C1162.63 117.643 1160.65 118.524 1159.41 119.552Z" fill="#DAE1E9"/>
<path d="M1310.92 123.225C1306.95 128.366 1309.18 133.801 1315.01 133.801C1317.37 133.801 1321.71 138.061 1333.01 151.429L1341.9 161.963C1345.7 166.461 1351.29 169.057 1357.18 169.057H1411.43C1473.47 169.057 1475.21 169.204 1477.57 171.995C1480.67 175.667 1482.78 175.667 1485.63 171.995C1490.47 165.678 1482.9 158.186 1477.57 163.915C1475.71 165.825 1467.02 166.119 1411.68 166.119H1357.25C1351.4 166.119 1345.83 163.549 1342.03 159.089L1333.5 149.079C1321.09 134.536 1319.23 131.598 1319.73 128.366C1320.1 125.722 1319.6 123.959 1318.11 122.49C1315.01 119.846 1313.28 120.14 1310.92 123.225Z" fill="#DAE1E9"/>
<path d="M280.118 124.987C277.14 128.513 277.016 130.569 279.622 134.976C281.979 138.942 286.447 139.089 289.425 135.27C291.658 132.332 293.271 132.332 357.301 132.332C421.206 132.332 422.944 132.479 425.301 135.27C428.403 138.942 431.754 139.089 434.36 135.564C437.338 131.598 436.965 126.897 433.367 124.106C429.892 121.462 425.922 122.49 424.06 126.603C422.819 129.247 420.71 129.394 357.425 129.394H296.806C293.871 129.394 291.101 128.039 289.301 125.722C285.826 121.315 283.469 121.021 280.118 124.987Z" fill="#DAE1E9"/>
<path d="M1546.56 124.4C1542.71 128.807 1544.95 135.27 1550.16 135.27C1551.65 135.27 1553.88 133.948 1555.12 132.332C1557.23 129.541 1559.34 129.394 1665.93 129.394C1719.08 129.394 1763.8 129.162 1773.28 128.801C1774.54 128.754 1774.53 128.558 1773.27 128.511C1763.83 128.154 1719.52 127.925 1666.43 127.925C1558.6 127.925 1556.98 127.925 1554.5 124.987C1551.52 121.462 1549.17 121.315 1546.56 124.4Z" fill="#DAE1E9"/>
<path d="M255.796 146.581C251.701 147.463 249.716 153.926 252.198 158.186C254.679 162.74 260.884 163.034 262.745 158.774C264.11 155.836 265.351 155.836 348.862 155.836H424.345C430.224 155.836 435.806 158.423 439.606 162.909L478.534 208.866C516.257 253.67 523.33 262.631 523.33 266.156C523.33 268.947 524.323 271.151 526.432 272.767C529.286 274.97 529.783 274.97 532.637 272.767C538.593 268.213 535.739 257.489 529.038 258.958C526.432 259.546 519.607 252.201 480.892 206.222L441.84 159.992C438.04 155.493 432.451 152.898 426.562 152.898H349.979C276.643 152.898 264.11 152.604 263.614 150.841C262.621 147.903 259.022 145.994 255.796 146.581Z" fill="#DAE1E9"/>
<path d="M1095.62 147.903C1092.65 150.401 1091.9 157.011 1094.38 159.949C1096.74 162.74 1102.57 162.006 1104.31 158.774C1105.92 155.836 1107.29 155.836 1171.07 155.836H1226.93C1232.82 155.836 1238.41 158.431 1242.21 162.93L1283.37 211.657L1324.53 260.384C1328.33 264.883 1333.92 267.478 1339.81 267.478H1409.32H1478.83C1484.72 267.478 1490.31 264.883 1494.11 260.384L1526.58 221.94L1558.93 183.52C1562.73 179.007 1568.33 176.402 1574.23 176.402H1670.15C1739.52 176.402 1775.38 175.961 1775.38 174.933C1775.38 173.904 1739.15 173.464 1669.16 173.464H1572.21C1566.33 173.464 1560.75 176.049 1556.95 180.533L1524.35 219.002L1491.75 257.471C1487.95 261.955 1482.37 264.54 1476.49 264.54H1408.82H1341.05C1335.16 264.54 1329.57 261.945 1325.77 257.446L1284.61 208.719L1243.45 159.992C1239.65 155.493 1234.06 152.898 1228.17 152.898H1172.06H1111.48C1108.43 152.898 1105.53 151.554 1103.57 149.226C1099.97 144.965 1099.35 144.819 1095.62 147.903Z" fill="#DAE1E9"/>
<path d="M1496.18 196.233L1466.81 231.005C1463.01 235.503 1457.42 238.099 1451.53 238.099H1409.69C1360.06 238.099 1358.32 237.952 1355.96 235.161C1352.61 231.194 1350.25 231.488 1347.9 235.748C1346.28 238.539 1346.16 240.008 1347.28 242.359C1349.01 246.472 1354.84 246.472 1356.95 242.506C1358.44 239.715 1359.81 239.568 1410.31 239.568H1452.77C1458.66 239.568 1464.25 236.972 1468.05 232.474L1497.42 197.702L1526.82 162.896C1530.61 158.417 1536.17 155.824 1542.03 155.802L1654.39 155.395L1776 155.101L1653.77 154.661L1540.86 154.389C1534.96 154.375 1529.35 156.972 1525.53 161.483L1496.18 196.233Z" fill="#DAE1E9"/>
<path d="M1276.79 157.599C1272.95 162.153 1277.29 170.379 1282.5 168.469C1284.11 167.882 1290.44 174.345 1305.71 192.561L1320.81 210.439C1324.61 214.938 1330.2 217.533 1336.09 217.533H1377.92C1427.81 217.533 1429.17 217.533 1430.41 220.471C1432.9 225.906 1440.34 223.703 1440.34 217.68C1440.34 210.335 1435.13 207.691 1431.03 213.126C1428.8 215.917 1427.19 216.064 1378.42 216.064H1337.33C1331.44 216.064 1325.85 213.469 1322.05 208.97L1306.95 191.092C1291.31 172.582 1285.98 165.238 1286.22 163.034C1287.09 157.011 1280.52 153.192 1276.79 157.599Z" fill="#DAE1E9"/>
<path d="M110.118 160.243C107.512 163.328 106.519 163.328 40.6287 163.181C-1.80947 163.181 -26.3789 163.622 -26.3789 164.503C-26.3789 165.384 -1.68538 166.119 39.8841 166.413L101.753 166.824C104.556 166.843 107.226 168.024 109.125 170.085C112.972 174.345 116.943 174.345 119.301 170.232C121.906 165.825 121.782 163.769 118.804 160.243C115.702 156.571 113.22 156.571 110.118 160.243Z" fill="#DAE1E9"/>
<path d="M1154.44 169.938C1150.6 174.492 1152.83 180.808 1158.29 180.808C1159.9 180.808 1161.76 179.486 1162.63 177.871C1164.12 175.079 1165.61 174.933 1194.03 174.933H1214.52C1220.41 174.933 1226 177.528 1229.8 182.026L1272.45 232.517C1313.28 280.846 1321.09 290.835 1320.47 293.479C1319.98 295.829 1320.6 297.298 1322.83 299.061C1327.17 302.293 1331.14 299.943 1331.14 293.92C1331.14 289.072 1329.65 287.603 1324.94 287.75C1322.21 287.75 1313.65 278.349 1273.32 230.607L1231.04 180.557C1227.24 176.059 1221.65 173.464 1215.76 173.464H1194.65C1165.73 173.464 1164.12 173.317 1162.01 170.526C1159.53 167 1157.05 166.853 1154.44 169.938Z" fill="#DAE1E9"/>
<path d="M220.556 173.464C219.812 175.226 219.315 177.87 219.564 179.339C219.812 181.396 211.622 192.12 190.155 217.533L166.366 245.694C162.566 250.193 156.976 252.788 151.088 252.788H67.0594C5.63582 252.788 -26.3789 253.229 -26.3789 254.257C-26.3789 255.286 5.884 255.726 68.0521 255.726H153.271C159.189 255.726 164.802 253.106 168.603 248.569L192.14 220.471C217.578 190.063 222.17 185.215 225.396 185.215C229.118 185.215 232.965 181.984 232.965 178.899C232.965 171.554 223.286 167.441 220.556 173.464Z" fill="#DAE1E9"/>
<path d="M379.388 179.34C378.147 182.278 376.782 182.278 315.482 182.278H262.085C256.207 182.278 250.627 184.863 246.827 189.348L212.986 229.285L179.145 269.222C175.345 273.706 169.764 276.292 163.886 276.292H153.051C134.438 276.292 132.949 276.145 131.46 273.354C129.474 269.535 126 269.535 123.146 273.354C121.285 275.852 121.16 276.88 122.277 279.965C124.139 284.665 130.467 285.106 132.452 280.699C133.693 277.908 135.058 277.761 153.92 277.761H164.86C170.749 277.761 176.338 275.166 180.138 270.667L213.854 230.754L247.445 190.864C251.245 186.351 256.844 183.747 262.743 183.747H315.855C369.461 183.747 378.271 184.04 378.891 185.95C380.753 191.532 389.315 189.329 389.315 183.306C389.315 176.549 381.994 173.611 379.388 179.34Z" fill="#DAE1E9"/>
<path d="M419.345 178.165C415.498 182.719 419.841 190.945 425.053 189.035C426.666 188.448 439.82 203.137 475.557 245.444L517.959 295.64C521.759 300.139 527.349 302.734 533.237 302.734H554.601C584.01 302.734 585.375 302.881 586.616 305.672C589.098 311.254 596.543 308.463 596.543 302C596.543 295.389 590.711 293.186 586.988 298.327C584.879 301.118 583.265 301.265 554.973 301.265H534.478C528.589 301.265 523 298.67 519.2 294.171L476.674 243.828C439.323 199.759 428.279 185.803 428.652 183.6C430.017 177.871 422.944 173.905 419.345 178.165Z" fill="#DAE1E9"/>
<path d="M1617.54 195.352C1616.05 198.29 1614.81 198.436 1595.45 198.436H1584.26C1578.37 198.436 1572.78 201.032 1568.98 205.53L1535.27 245.444L1501.55 285.357C1497.75 289.856 1492.16 292.451 1486.27 292.451H1433.76C1373.58 292.451 1371.72 292.304 1368.74 289.513C1365.89 286.869 1365.14 286.722 1362.91 288.485C1358.32 292.157 1359.06 298.474 1364.28 300.384C1366.26 301.118 1367.63 300.53 1369.24 298.474C1371.35 295.389 1372.34 295.389 1433.52 295.389H1486.27C1492.16 295.389 1497.75 292.794 1501.55 288.295L1535.89 247.647L1570.23 206.999C1574.03 202.501 1579.61 199.905 1585.5 199.905H1596.07C1614.56 199.905 1616.05 200.052 1617.54 202.843C1619.77 207.103 1624.98 206.663 1626.72 201.962C1628.58 197.114 1626.85 193.442 1622.38 192.854C1620.14 192.561 1618.66 193.295 1617.54 195.352Z" fill="#DAE1E9"/>
<path d="M1646.58 194.323C1645.71 195.351 1645.09 197.408 1645.09 199.171C1645.09 205.781 1652.16 208.278 1655.39 202.843C1657 200.052 1658.74 199.905 1716.56 199.465L1776 199.171L1716.44 198.73C1658.36 198.436 1656.75 198.289 1655.26 195.498C1653.53 192.267 1648.93 191.532 1646.58 194.323Z" fill="#DAE1E9"/>
<path d="M1214.75 204.606C1213.88 205.634 1213.26 208.132 1213.26 210.188C1213.26 215.183 1215.37 217.533 1220.09 217.533C1223.31 217.533 1229.27 223.997 1268.48 270.416L1307.16 316.206C1310.96 320.704 1316.55 323.3 1322.44 323.3H1399.02C1483.52 323.3 1484.89 323.3 1486.25 326.238C1488.12 330.498 1493.2 331.526 1496.18 328.441C1499.28 325.062 1499.41 320.068 1496.43 316.983C1493.33 313.751 1490.47 313.898 1487.5 317.424C1485.01 320.362 1483.4 320.362 1400.26 320.362H1324.67C1318.78 320.362 1313.19 317.766 1309.39 313.268L1270.47 267.185C1240.19 231.342 1225.79 213.42 1226.29 211.951C1226.66 210.776 1226.04 208.279 1225.05 206.369C1222.94 202.55 1217.36 201.521 1214.75 204.606Z" fill="#DAE1E9"/>
<path d="M223.659 254.258L191.184 292.702C187.384 297.201 181.794 299.796 175.905 299.796H79.4682C9.73072 299.796 -26.3789 300.237 -26.3789 301.265C-26.3789 302.293 9.9789 302.734 80.0887 302.734H177.146C183.035 302.734 188.624 300.139 192.425 295.64L224.899 257.195L257.374 218.751C261.174 214.252 266.764 211.657 272.653 211.657H340.301H407.95C413.839 211.657 419.428 214.252 423.228 218.751L464.389 267.478L505.675 316.353C509.475 320.851 515.064 323.446 520.953 323.446H576.317L635.757 323.312C639.167 323.304 642.434 324.677 644.813 327.119C649.529 331.82 654.368 331.085 656.105 325.356C657.719 320.508 655.857 316.248 651.638 315.073C649.281 314.339 647.667 315.073 645.062 318.011C642.932 320.439 639.86 321.831 636.631 321.831H577.806H523.311C517.422 321.831 511.832 319.235 508.032 314.737L466.251 265.275L424.469 215.813C420.669 211.314 415.08 208.719 409.191 208.719H340.301H271.412C265.523 208.719 259.934 211.314 256.133 215.813L223.659 254.258Z" fill="#DAE1E9"/>
<path d="M1557.6 255.727C1531.67 286.428 1527.33 290.982 1524.1 290.982C1519.38 290.982 1517.28 293.332 1517.28 298.621C1517.28 301.265 1518.27 303.468 1520.38 305.084C1523.23 307.288 1523.73 307.288 1526.58 305.084C1528.82 303.321 1529.68 301.412 1529.68 297.886C1529.68 293.626 1532.79 289.366 1559.22 258.224L1582.63 230.503C1586.43 226.004 1592.02 223.409 1597.91 223.409H1682.06C1743.49 223.409 1775.38 222.968 1775.38 221.94C1775.38 220.912 1743.24 220.471 1681.32 220.471H1596.67C1590.78 220.471 1585.19 223.066 1581.39 227.565L1557.6 255.727Z" fill="#DAE1E9"/>
<path d="M392.791 233.692C391.302 236.483 389.813 236.63 339.681 236.63H297.47C291.582 236.63 285.992 239.225 282.192 243.724L252.819 278.496L223.447 313.268C219.646 317.767 214.057 320.362 208.168 320.362H95.5997C13.0811 320.362 -26.3789 320.803 -26.3789 321.831C-26.3789 322.859 12.957 323.3 95.2274 323.3L207.686 323.164C213.567 323.157 219.146 320.562 222.941 316.07L252.943 280.553L282.938 245.167C286.738 240.684 292.317 238.099 298.194 238.099H340.053C390.309 238.099 391.177 238.099 392.791 241.184C393.907 243.241 395.396 243.975 397.63 243.681C402.097 243.094 403.835 239.421 401.973 234.574C400.236 229.873 395.024 229.432 392.791 233.692Z" fill="#DAE1E9"/>
<path d="M544.053 233.839C539.834 240.89 546.907 247.206 552.367 241.183C554.973 238.246 556.338 238.099 581.404 238.099C606.345 238.099 607.71 238.246 608.951 241.037C610.813 245.003 617.141 245.003 618.878 240.89C619.995 238.539 619.871 237.07 618.258 234.279C615.9 230.019 612.054 229.725 609.944 233.692C608.455 236.483 606.966 236.63 581.032 236.63C555.097 236.63 553.608 236.483 552.119 233.692C550.134 229.872 546.287 229.872 544.053 233.839Z" fill="#DAE1E9"/>
<path d="M1131.61 233.986C1130.74 235.014 1130.12 237.071 1130.12 238.833C1130.12 245.297 1137.57 248.088 1140.05 242.506C1141.29 239.715 1142.65 239.568 1168.34 239.568C1193.9 239.568 1195.39 239.715 1196.88 242.506C1200.11 248.822 1208.05 244.562 1206.56 237.364C1205.44 232.223 1199.86 230.754 1197 234.867C1194.9 237.952 1194.03 238.099 1168.22 238.099C1143.27 238.099 1141.54 237.952 1139.43 235.161C1136.95 231.782 1133.84 231.342 1131.61 233.986Z" fill="#DAE1E9"/>
<path d="M1551.4 310.079L1507.76 361.744C1503.96 366.242 1498.37 368.838 1492.48 368.838H1397.53H1302.68C1296.81 368.838 1291.23 366.256 1287.43 361.779L1266.62 337.255L1245.81 312.731C1242.01 308.253 1236.43 305.672 1230.56 305.672H1178.76C1120.19 305.672 1117.59 305.525 1115.35 302.881C1111.26 298.033 1104.19 302.293 1105.92 308.61C1107.04 312.87 1110.89 314.926 1113.99 313.016C1115.35 312.135 1116.47 310.813 1116.47 310.079C1116.47 309.197 1139.43 308.61 1178.27 308.61H1230.65C1236.54 308.61 1242.13 311.205 1245.93 315.703L1266 339.458L1286.06 363.213C1289.86 367.711 1295.45 370.307 1301.34 370.307H1397.53H1493.72C1499.61 370.307 1505.2 367.711 1509 363.213L1552.64 311.548L1596.2 259.854C1599.98 255.371 1605.53 252.771 1611.39 252.742L1689.14 252.348L1776 252.054L1688.52 251.613L1610.36 251.351C1604.45 251.331 1598.83 253.928 1595.02 258.445L1551.4 310.079Z" fill="#DAE1E9"/>
<path d="M310.148 254.551C309.28 255.579 308.659 257.636 308.659 259.399C308.659 266.009 315.98 268.653 318.834 263.071C320.323 260.28 321.813 260.133 370.703 260.133H411.673C417.562 260.133 423.151 262.729 426.951 267.227L442.302 285.4C459.923 306.406 463.645 311.401 463.025 314.045C462.528 316.395 463.149 317.864 465.382 319.627C469.726 322.859 473.696 320.508 473.696 314.485C473.696 309.638 472.207 308.169 467.492 308.316C464.762 308.316 460.295 303.762 443.171 283.49L428.192 265.758C424.392 261.26 418.802 258.664 412.914 258.664H371.075C321.192 258.664 319.827 258.664 318.586 255.726C317.097 252.495 312.506 251.76 310.148 254.551Z" fill="#DAE1E9"/>
<path d="M94.2341 273.354C92.0005 276.145 90.0151 276.292 32.4382 276.733L-27 277.026L32.8105 277.467C91.2559 277.761 92.745 277.761 93.9859 280.699C96.4676 286.281 103.913 283.49 103.913 277.026C103.913 270.416 98.2049 268.213 94.2341 273.354Z" fill="#DAE1E9"/>
<path d="M277.885 278.055C277.016 279.083 276.396 281.581 276.396 283.637C276.396 285.694 277.016 288.191 277.885 289.219C280.242 292.01 286.074 291.276 287.812 288.044C289.425 285.106 290.79 285.106 350.848 285.106H402.986C408.875 285.106 414.464 287.701 418.264 292.2L451.732 331.82C486.104 372.51 491.068 378.974 491.068 382.94C491.068 388.375 493.053 390.873 497.52 390.873C499.754 390.873 501.615 389.697 502.98 387.2C504.842 383.821 504.842 383.234 502.98 379.855C501.491 377.211 499.878 376.183 496.9 376.183C493.301 376.183 488.958 371.482 453.221 329.175L419.505 289.262C415.705 284.763 410.116 282.168 404.227 282.168H351.469C290.79 282.168 289.425 282.168 287.812 279.23C286.074 275.998 280.242 275.264 277.885 278.055Z" fill="#DAE1E9"/>
<path d="M1569.39 337.255L1523.89 391.123C1520.09 395.622 1514.5 398.217 1508.61 398.217H1412.42H1316.23C1310.34 398.217 1304.75 400.813 1300.95 405.311L1277.79 432.738L1254.62 460.165C1250.82 464.664 1245.23 467.259 1239.34 467.259H1168.59C1089.92 467.259 1088.55 467.259 1086.94 464.321C1086.07 462.705 1084.08 461.383 1082.47 461.383C1075.15 461.383 1073.17 472.107 1079.62 475.779C1082.97 477.689 1083.46 477.542 1086.57 474.017C1088.7 471.589 1091.77 470.197 1095 470.197H1169.95H1240.58C1246.47 470.197 1252.06 467.602 1255.86 463.103L1279.03 435.676L1302.2 408.249C1306 403.751 1311.59 401.155 1317.47 401.155H1413.66H1509.85C1515.74 401.155 1521.33 398.56 1525.13 394.061L1570.63 340.193L1616.14 286.324C1619.94 281.825 1625.53 279.23 1631.42 279.23H1698.69C1748.95 279.23 1775.38 278.789 1775.38 277.761C1775.38 276.733 1748.82 276.292 1698.07 276.292H1630.18C1624.29 276.292 1618.7 278.887 1614.9 283.386L1569.39 337.255Z" fill="#DAE1E9"/>
<path d="M263.614 303.762C261.752 305.966 262.745 313.017 265.227 314.486C267.833 316.102 272.672 314.192 272.672 311.548C272.672 310.666 296.497 310.079 336.95 310.079H391.817C397.706 310.079 403.296 312.674 407.096 317.173L415.622 327.266C427.782 341.662 430.14 345.187 429.52 347.978C428.155 354.001 434.855 358.408 438.702 353.854C442.301 349.594 439.198 341.662 434.111 342.69C432.374 342.984 427.286 337.989 416.242 325.062L406.735 313.988C402.925 309.55 397.363 307.002 391.514 307.015L337.198 307.141C280.366 307.288 273.417 307.141 272.424 305.084C271.307 302.734 265.227 301.853 263.614 303.762Z" fill="#DAE1E9"/>
<path d="M1631.19 304.35C1628.09 306.406 1628.21 315.367 1631.31 317.423C1635.04 319.627 1637.27 319.186 1640 315.661C1641.57 313.714 1643.94 312.598 1646.44 312.637L1708.99 313.604C1747.21 314.192 1775.38 314.045 1775.38 313.31C1775.38 311.548 1731.33 310.079 1682.07 310.079H1647.54C1644.49 310.079 1641.59 308.735 1639.63 306.406C1636.28 302.44 1634.54 301.999 1631.19 304.35Z" fill="#DAE1E9"/>
<path d="M1211.03 325.062C1210.16 326.09 1209.54 328.147 1209.54 329.91C1209.54 334.023 1211.9 336.52 1215.74 336.52C1220.09 336.52 1247.63 368.985 1247.01 373.391C1246.14 379.414 1252.84 383.087 1256.44 378.827C1260.29 374.273 1255.95 366.047 1250.74 367.956C1249.12 368.544 1244.53 364.137 1234.36 351.944C1221.95 337.255 1220.21 334.464 1220.46 330.791C1221.08 324.621 1214.63 320.802 1211.03 325.062Z" fill="#DAE1E9"/>
<path d="M237.928 329.176C234.95 332.701 234.826 334.758 237.431 339.165C239.789 343.278 244.877 343.425 246.862 339.458C248.475 336.52 249.84 336.52 321.067 336.52H384.372C390.261 336.52 395.851 339.116 399.651 343.614L413.14 359.583C429.147 378.68 432.622 383.381 432.001 386.025C431.257 389.404 435.104 395.28 438.33 395.28C440.936 395.28 445.155 389.991 445.155 386.759C445.155 382.793 440.936 378.827 437.213 379.415C434.483 379.708 430.885 376.183 414.381 356.645L400.783 340.548C396.974 336.039 391.367 333.442 385.464 333.454L322.432 333.582H254.521C251.749 333.582 249.158 332.206 247.607 329.91C244.628 325.503 241.278 325.209 237.928 329.176Z" fill="#DAE1E9"/>
<path d="M1757.26 337.989C1755.77 338.577 1754.28 340.193 1753.91 341.515C1753.17 343.571 1745.6 343.865 1680.08 343.865H1616.4C1610.51 343.865 1604.92 346.461 1601.12 350.959L1571.75 385.731L1542.5 420.477C1538.7 424.991 1533.1 427.597 1527.2 427.597H1435.87C1336.85 427.597 1335.24 427.597 1333.01 424.659C1328.41 418.636 1320.1 423.484 1321.71 431.123C1323.2 438.174 1330.9 439.643 1333.63 433.326C1334.87 430.535 1337.35 430.535 1436.37 430.535H1528.46C1534.35 430.535 1539.94 427.94 1543.74 423.441L1573.12 388.669L1602.49 353.897C1606.29 349.398 1611.88 346.803 1617.77 346.803H1680.58C1751.06 346.803 1752.67 346.803 1754.9 349.741C1757.76 353.414 1761.98 353.561 1764.58 350.035C1767.31 346.363 1767.19 342.984 1764.21 339.458C1761.48 336.227 1761.11 336.08 1757.26 337.989Z" fill="#DAE1E9"/>
<path d="M1315.01 340.927C1312.04 344.453 1311.91 346.509 1314.52 350.916C1316.87 354.882 1321.34 355.029 1324.32 351.21C1326.55 348.272 1328.17 348.272 1392.44 348.272C1456.97 348.272 1458.33 348.272 1459.95 351.21C1463.3 357.674 1472.48 352.238 1470.87 344.747C1469.88 339.899 1466.15 337.549 1462.31 339.311C1460.69 340.046 1458.96 341.809 1458.58 342.984C1457.84 345.04 1450.77 345.334 1392.44 345.334H1331.7C1328.77 345.334 1326 343.979 1324.2 341.662C1320.72 337.255 1318.36 336.961 1315.01 340.927Z" fill="#DAE1E9"/>
<path d="M612.922 341.221C612.054 342.249 611.433 345.04 611.433 347.538C611.433 351.21 609.2 354.589 598.032 367.81L590.747 376.434C586.947 380.932 581.357 383.528 575.468 383.528H557.951H540.568C534.602 383.528 528.948 380.865 525.149 376.266L520.104 370.16C512.287 360.758 509.185 356.058 509.433 353.854C510.053 350.035 506.331 345.334 502.856 345.334C499.754 345.334 496.031 349.594 496.031 353.12C496.031 357.086 500.871 361.787 503.973 360.905C506.206 360.318 508.812 362.668 517.747 373.245L522.922 379.372C526.722 383.87 532.312 386.466 538.201 386.466H557.455H576.709C582.598 386.466 588.187 383.87 591.987 379.372L599.645 370.307C610.813 357.086 613.791 354.148 616.521 354.442C620.988 354.883 623.842 351.798 623.842 346.656C623.842 340.487 616.521 336.961 612.922 341.221Z" fill="#DAE1E9"/>
<path d="M721.004 342.396C718.894 345.187 717.281 345.334 682.164 345.334H654.844C648.955 345.334 643.366 347.929 639.566 352.428L604.609 393.81L569.652 435.193C565.852 439.691 560.263 442.286 554.374 442.286H438.951H323.63C317.754 442.286 312.176 439.703 308.376 435.222L282.6 404.827L256.95 374.462C253.15 369.964 247.561 367.369 241.672 367.369H112.227C20.6505 367.369 -26.3789 367.809 -26.3789 368.838C-26.3789 369.866 20.5264 370.306 111.731 370.306H240.431C246.32 370.306 251.909 372.902 255.709 377.4L281.36 407.765L307.01 438.13C310.81 442.629 316.399 445.224 322.288 445.224H438.951H555.615C561.504 445.224 567.093 442.629 570.893 438.13L605.85 396.748L640.932 355.343C644.732 350.858 650.313 348.272 656.191 348.272H682.288H713.126C716.061 348.272 718.831 349.627 720.631 351.944C722.245 354.001 724.478 355.617 725.719 355.617C731.303 355.617 734.281 344.012 729.442 340.927C725.843 338.723 723.361 339.164 721.004 342.396Z" fill="#DAE1E9"/>
<path d="M194.125 343.865C192.388 346.803 190.775 346.803 82.6939 347.244L-27 347.537L83.0661 347.978C191.767 348.272 193.132 348.272 194.497 351.21C196.979 356.792 204.424 354.001 204.424 347.537C204.424 340.927 197.351 338.43 194.125 343.865Z" fill="#DAE1E9"/>
<path d="M531.023 344.599C525.935 348.859 528.665 358.555 534.994 358.555C536.483 358.555 538.965 356.939 540.454 354.882C543.06 351.357 543.556 351.21 560.308 351.21C577.06 351.21 577.556 351.357 580.162 354.882C583.636 359.583 588.476 359.73 591.082 354.882C593.563 350.475 592.323 345.628 588.228 343.718C584.877 342.249 581.155 343.865 579.914 347.537C579.417 349.447 576.067 349.741 560.06 349.741C541.943 349.741 540.826 349.594 540.082 346.803C539.709 345.187 538.841 343.865 538.22 343.865C537.6 343.865 536.483 343.571 535.49 343.13C534.622 342.69 532.636 343.424 531.023 344.599Z" fill="#DAE1E9"/>
<path d="M334.965 357.38C334.096 358.408 333.476 360.906 333.476 362.962C333.476 367.81 335.585 370.307 339.68 370.307C342.038 370.307 345.264 373.098 351.717 380.59L354.41 383.779C358.21 388.277 363.8 390.873 369.689 390.873H376.658C392.293 390.873 393.038 391.02 396.016 394.545C399.118 398.218 401.476 398.218 405.199 394.839C407.06 393.076 407.184 386.172 405.199 383.822C402.841 381.031 397.009 381.765 395.271 384.997C393.782 387.641 392.293 387.935 378.023 387.935H371.729C365.738 387.935 360.062 385.249 356.263 380.615L354.074 377.946C347.622 370.16 345.884 367.075 345.884 363.55C345.884 358.115 343.899 355.617 339.68 355.617C337.943 355.617 335.833 356.352 334.965 357.38Z" fill="#DAE1E9"/>
<path d="M289.798 365.165C288.681 368.25 288.805 369.278 290.791 371.922C292.156 373.832 294.141 374.714 295.754 374.273C297.988 373.832 302.083 377.945 315.732 394.104L326.864 407.282C330.664 411.781 336.254 414.376 342.143 414.376H432.747C532.142 414.376 532.762 414.376 534.872 417.461C537.602 421.133 541.697 420.693 543.93 416.579C545.419 413.935 545.295 413.054 543.682 410.263C541.324 406.297 538.098 406.15 535.12 409.969C532.886 412.907 531.273 412.907 433.492 412.907H343.427C337.513 412.907 331.902 410.29 328.102 405.758L317.097 392.635C303.199 376.036 300.221 371.776 300.221 368.25C300.345 360.905 292.404 358.555 289.798 365.165Z" fill="#DAE1E9"/>
<path d="M1603.52 390.873C1592.22 404.24 1587.88 408.5 1585.52 408.5C1581.55 408.5 1579.32 410.998 1579.32 415.405C1579.32 419.224 1583.29 422.309 1586.77 420.987C1589.25 420.105 1591.36 414.229 1589.99 411.732C1589.74 411.145 1596.2 402.478 1604.51 392.635L1613.7 381.755C1617.47 377.287 1623.02 374.695 1628.87 374.662L1697.82 374.273L1776 373.979L1697.2 373.539L1627.74 373.28C1621.82 373.258 1616.2 375.855 1612.39 380.373L1603.52 390.873Z" fill="#DAE1E9"/>
<path d="M157.395 386.319C152.928 391.607 157.892 400.274 163.476 396.749C164.841 395.867 165.957 394.545 165.957 393.811C165.957 392.929 179.607 392.342 201.695 392.342H228.022C233.911 392.342 239.5 394.937 243.3 399.436L257.659 416.433C270.067 431.123 277.637 441.112 277.016 442.14C275.775 444.637 279.746 451.101 282.476 451.101C285.827 451.101 288.805 446.4 287.936 442.581C287.316 439.349 282.6 436.852 280.367 438.468C279.87 438.761 269.943 428.038 258.279 414.229L243.3 396.498C239.5 391.999 233.911 389.404 228.022 389.404H202.315C168.811 389.404 167.074 389.257 164.717 386.466C161.614 382.793 160.373 382.793 157.395 386.319Z" fill="#DAE1E9"/>
<path d="M1259.92 388.816C1258.8 389.991 1257.93 392.782 1257.93 394.986C1257.93 398.071 1254.21 403.359 1241.8 418.342L1231.67 430.614C1227.87 435.215 1222.21 437.88 1216.25 437.88H1182.24C1140.17 437.88 1138.81 437.733 1137.57 434.942C1135.58 430.535 1129.5 430.976 1126.9 435.676C1125.03 439.055 1125.03 439.643 1126.9 443.021C1129.5 447.722 1135.58 448.163 1137.57 443.756C1138.81 440.965 1140.17 440.818 1183.23 440.818H1218.24C1224.13 440.818 1229.72 438.223 1233.52 433.724L1244.28 420.987C1253.47 410.116 1261.78 401.449 1262.65 401.89C1265.25 403.065 1270.09 400.127 1270.96 396.748C1272.95 389.404 1264.51 383.234 1259.92 388.816Z" fill="#DAE1E9"/>
<path d="M1095.13 393.957C1091.78 396.307 1092.27 403.505 1096 406.443C1098.85 408.647 1099.35 408.647 1102.2 406.443C1103.94 405.121 1105.3 403.358 1105.3 402.624C1105.3 401.743 1124.04 401.155 1156.8 401.155C1206.31 401.155 1208.3 401.302 1209.54 403.946C1212.14 409.822 1219.59 408.941 1221.33 402.624C1222.44 398.364 1218.84 392.341 1215.25 392.341C1213.76 392.341 1211.4 393.663 1210.16 395.279C1207.92 398.07 1206.31 398.217 1156.92 398.217C1107.29 398.217 1105.8 398.07 1104.31 395.279C1102.7 392.047 1098.6 391.46 1095.13 393.957Z" fill="#DAE1E9"/>
<path d="M168.438 409.969C165.088 417.314 172.906 423.925 177.249 417.608C179.234 414.523 180.351 414.376 202.811 414.376H216.853C222.742 414.376 228.332 416.971 232.132 421.47L237.928 428.331C247.234 439.349 249.592 443.021 249.344 445.959C248.847 450.072 253.687 454.626 256.913 453.157C259.395 452.129 260.636 447.575 259.643 443.756C259.023 441.552 257.782 440.818 254.928 440.818C251.453 440.818 249.096 438.761 239.169 426.862L233.373 420.001C229.573 415.502 223.983 412.907 218.094 412.907H203.679C181.592 412.907 179.854 412.76 177.745 409.969C174.891 406.15 170.176 406.15 168.438 409.969Z" fill="#DAE1E9"/>
<path d="M1563.81 425.54C1562.69 426.862 1561.95 429.506 1562.2 431.416C1562.44 434.06 1560.33 437.439 1553.26 445.959L1550.08 449.781C1546.28 454.34 1540.65 456.976 1534.71 456.976H1517.9C1493.33 456.976 1491.59 456.829 1489.6 454.038C1488.49 452.423 1486.75 451.1 1485.76 451.1C1483.28 451.1 1480.05 455.214 1480.05 458.298C1480.05 464.468 1486.75 466.378 1490.6 461.383C1492.71 458.592 1494.44 458.445 1519.01 458.445H1535.95C1541.89 458.445 1547.52 455.809 1551.32 451.25L1554.5 447.428C1561.2 439.349 1564.55 436.411 1566.91 436.411C1568.65 436.411 1570.76 435.676 1571.63 434.648C1573.86 432.004 1573.36 426.422 1570.76 424.659C1567.41 422.602 1566.17 422.749 1563.81 425.54Z" fill="#DAE1E9"/>
<path d="M605.229 432.151C604.36 433.767 604.112 436.264 604.608 437.586C605.105 439.202 601.754 444.196 593.192 454.332L587.024 461.634C583.224 466.133 577.634 468.728 571.745 468.728H527.55C480.024 468.728 473.819 468.434 473.199 466.378C472.703 464.909 471.214 464.321 468.484 464.615C464.885 465.056 464.389 465.643 464.016 469.757C463.768 473.282 464.265 474.751 466.126 476.073C468.856 477.689 473.695 475.926 473.695 473.135C473.695 472.254 493.674 471.666 527.425 471.666H571.745C577.634 471.666 583.224 469.071 587.024 464.572L593.937 456.389C603.367 445.225 607.338 441.405 609.075 441.846C613.915 443.462 617.265 435.089 613.667 430.829C611.309 428.038 606.718 428.772 605.229 432.151Z" fill="#DAE1E9"/>
</g>
</svg>
