<svg width="223" height="830" viewBox="0 0 223 830" fill="none" xmlns="http://www.w3.org/2000/svg">
<g style="mix-blend-mode:overlay" opacity="0.2">
<path d="M2.28108 510.069C3.64481 510.818 3.64481 511.451 3.64482 547.969L3.64482 570.263C3.64482 579.685 7.79724 588.629 14.9951 594.709L19.6688 598.657L24.3425 602.605C31.5404 608.685 35.6928 617.628 35.6928 627.05L35.6928 661.44L35.6928 695.83C35.6928 705.252 39.8452 714.195 47.043 720.275L63.9904 734.591L80.9088 748.848C88.124 754.928 92.2881 763.883 92.2881 773.318L92.2881 794.034C92.2881 817.361 92.4927 829.63 92.97 829.63C93.4473 829.63 93.6519 817.188 93.6519 793.515L93.6519 772.304C93.6519 762.856 89.476 753.89 82.2434 747.81L65.3542 733.612L48.4943 719.473C41.2441 713.393 37.0565 704.416 37.0565 694.954L37.0565 660.749L37.0565 626.474C37.0565 617.052 32.9041 608.109 25.7063 602.029L21.0325 598.081L16.3588 594.133C9.16098 588.053 5.00856 579.109 5.00856 569.687L5.00856 547.681C5.00856 511.451 5.00856 510.818 6.3723 510.069C7.87242 509.263 8.21336 506.555 6.9178 505.461C6.44049 505.058 5.2813 504.77 4.32669 504.77C3.37207 504.77 2.21288 505.058 1.73557 505.461C0.440019 506.555 0.780954 509.263 2.28108 510.069Z" fill="#DAE1E9"/>
<path d="M2.28104 225.241C3.57659 226.22 3.64478 226.969 3.64478 250.758L3.64478 266.311C3.64478 271.972 6.13937 277.345 10.4635 280.997C15.8503 285.548 17.1458 286.93 16.8731 287.967C16.1912 290.213 19.9415 292.056 21.9189 290.386C23.8964 288.716 22.1917 285.605 19.396 286.008C18.3732 286.124 16.0548 284.568 11.1454 280.421C6.82124 276.769 4.32665 271.396 4.32665 265.735L4.32665 250.182C4.32665 226.336 4.39484 225.644 5.6904 224.953C7.46326 224.032 7.46326 222.419 5.6904 221.094C4.53121 220.23 4.0539 220.172 2.62197 220.691C0.508172 221.497 0.303611 223.859 2.28104 225.241Z" fill="#DAE1E9"/>
<path d="M7.7342 696.979C9.02976 697.901 9.09795 698.707 9.09795 710.112L9.09795 715.608C9.09795 719.826 10.9715 723.827 14.212 726.528C18.0305 729.753 19.326 731.193 19.326 732.403C19.326 735.225 22.2581 736.607 24.3719 734.822C26.5539 732.979 25.2583 730.559 22.0535 730.559C20.7579 730.559 18.9169 729.35 15.0302 726.067C11.7007 723.254 9.77982 719.117 9.77982 714.759L9.77982 709.709C9.77982 698.361 9.84801 697.728 11.1436 697.152C13.7347 696 12.4391 692.544 9.43888 692.544C6.37046 692.544 5.34765 695.251 7.7342 696.979Z" fill="#DAE1E9"/>
<path d="M12.6446 125.652C14.622 127.322 18.3723 125.479 17.6904 123.233C17.4177 122.196 18.7132 120.813 24.1 116.263C28.4242 112.61 30.9187 107.238 30.9187 101.577L30.9187 99.5017C30.9187 90.401 31.1233 88.3275 31.9415 87.7515C32.487 87.3483 32.9644 86.4843 32.9644 85.7931C32.9644 83.3163 29.9641 82.2795 27.9185 84.0651C26.4866 85.2747 26.5548 86.4267 28.1913 87.5787C29.4868 88.5002 29.555 89.3066 29.555 99.5593L29.555 102.202C29.555 107.466 27.235 112.463 23.2136 115.86C18.5769 119.719 16.4631 121.159 15.1675 121.159C13.1219 121.159 11.8263 122.138 11.8263 123.751C11.8263 124.442 12.1673 125.249 12.6446 125.652Z" fill="#DAE1E9"/>
<path d="M13.2592 137.978C14.0774 139.187 17.6232 139.36 18.3732 138.323C18.7142 137.92 18.8505 136.941 18.7823 136.135C18.646 134.983 20.7598 132.909 29.8968 125.191C37.0317 119.164 41.1477 110.299 41.1477 100.959L41.1477 99.3863C41.1477 83.3736 41.1477 83.0281 42.6478 82.0489C45.5799 80.0329 42.5115 76.4041 39.1021 77.9593C37.2611 78.7657 37.2611 81.4729 39.1021 82.4521C40.3977 83.1432 40.4659 83.7768 40.4659 99.1559L40.4659 100.196C40.4659 109.651 36.2513 118.65 29.0104 124.73C19.737 132.621 17.3504 134.349 16.1912 134.061C15.1684 133.831 14.4184 134.119 13.6001 135.04C12.3046 136.595 12.3046 136.653 13.2592 137.978Z" fill="#DAE1E9"/>
<path d="M15.9187 533.282C17.2143 534.261 17.2825 535.067 17.2825 554.536L17.2825 562.703C17.2825 570.345 20.6502 577.598 26.4877 582.529C34.3293 589.095 35.693 590.535 35.693 592.033C35.693 594.222 36.784 595.201 39.1024 595.201C41.3525 595.201 42.5117 594.222 42.5117 592.321C42.5117 590.363 41.3525 589.441 38.7614 589.441C36.9886 589.441 35.3521 588.289 27.6469 581.78C21.9391 576.959 18.6462 569.867 18.6462 562.395L18.6462 554.19C18.6462 535.01 18.7144 534.146 19.9418 533.57C22.8738 532.303 22.1919 528.731 18.919 528.04C15.3732 527.291 13.1231 531.151 15.9187 533.282Z" fill="#DAE1E9"/>
<path d="M38.0787 287.045L48.8521 296.118C56.0722 302.198 60.2395 311.155 60.2395 320.595L60.2395 322.469C60.2395 338.712 60.1713 339.23 58.8076 339.921C57.7848 340.44 57.512 341.131 57.6484 342.456C57.9212 344.76 59.5576 345.624 62.0806 344.875C64.6035 344.184 65.149 341.073 63.0352 339.921C61.6714 339.23 61.6033 338.712 61.6033 322.123L61.6033 319.931C61.6033 310.509 57.4508 301.566 50.253 295.486L39.4424 286.354L28.6318 277.222C21.434 271.142 17.2816 262.198 17.2816 252.776L17.2816 209.228L17.2816 165.567C17.2816 156.21 21.3769 147.322 28.4894 141.242L34.4648 136.135L40.4135 131.07C47.5817 124.967 51.6988 116.017 51.6687 106.603L51.5116 57.3391C51.4434 15.522 51.1024 -6.71136 50.6933 -6.71136C50.216 -6.71136 50.0114 15.4068 50.0114 57.3967L50.0114 106.589C50.0114 116.011 45.859 124.955 38.6612 131.035L32.9647 135.847L27.2681 140.659C20.0703 146.739 15.9179 155.682 15.9179 165.105L15.9179 209.286L15.9179 253.468C15.9179 262.89 20.0703 271.833 27.2681 277.913L38.0787 287.045Z" fill="#DAE1E9"/>
<path d="M20.6916 624.289C22.0554 625.326 22.0554 626.075 22.0554 672.039L22.0554 703.894C22.0554 713.316 26.2078 722.26 33.4056 728.34L41.4887 735.168L49.5718 741.996C56.7696 748.076 60.9221 757.019 60.9221 766.441L60.9221 785.221L60.9862 816.858C60.9888 818.13 60.4437 819.342 59.4901 820.184C56.6263 822.719 59.6947 826.29 63.5132 824.85C65.9679 823.871 66.2407 821.624 64.1269 820.069C63.0108 819.235 62.3523 817.924 62.3495 816.531L62.2858 784.876L62.2858 765.865C62.2858 756.443 58.1334 747.5 50.9356 741.42L42.8525 734.592L34.7694 727.764C27.5715 721.684 23.4191 712.74 23.4191 703.318L23.4191 671.751C23.4191 626.075 23.4191 625.326 24.7829 624.289C26.7603 622.791 26.5557 620.084 24.4419 619.278C20.4189 617.723 17.3505 621.755 20.6916 624.289Z" fill="#DAE1E9"/>
<path d="M27.2374 742.597C28.0557 743.519 28.8057 743.807 29.8286 743.577C31.1241 743.289 32.8288 744.498 39.5111 750.2C39.5949 750.272 39.6785 750.344 39.7617 750.415C44.9619 754.874 47.8779 760.976 47.9228 767.825C47.9658 774.403 48.0002 783.506 48.0345 793.515C48.1027 814.308 48.3755 829.63 48.7164 829.63C49.0573 829.63 49.3301 814.366 49.3301 793.458L49.3301 768.443C49.3301 761.367 46.2118 754.651 40.8067 750.085C33.7152 744.21 32.2833 742.713 32.6242 741.676C33.1015 740.005 30.7832 737.932 29.0785 738.45C27.8511 738.796 26.1464 740.236 26.1464 740.927C26.1464 741.1 26.6238 741.849 27.2374 742.597Z" fill="#DAE1E9"/>
<path d="M27.6456 257.554C28.1229 257.957 29.0775 258.245 29.8957 258.245C32.896 258.245 34.1915 254.789 31.6004 253.637C30.2367 253.004 30.2367 252.428 30.2367 206.809L30.2367 172.932C30.2367 165.121 33.6792 157.706 39.6465 152.666C47.8289 145.754 49.2609 144.775 51.2383 144.775C52.943 144.775 53.6249 144.429 54.034 143.45C54.784 141.952 53.5567 139.994 51.7838 139.706C50.0109 139.418 47.8289 141.319 48.2381 142.759C48.5108 143.738 46.6698 145.638 39.101 151.974C33.0472 157.088 29.5548 164.61 29.5548 172.535L29.5548 206.406C29.5548 252.082 29.5548 252.831 28.1911 253.81C26.6228 254.904 26.4182 256.517 27.6456 257.554Z" fill="#DAE1E9"/>
<path d="M34.6695 571.931C36.2378 572.795 36.5106 572.795 38.0789 571.931C40.2609 570.721 40.4654 567.899 38.4198 566.977C37.0561 566.401 37.0561 565.768 37.0561 542.498C37.0561 519.228 37.0561 518.594 38.4198 518.018C40.4654 517.096 40.2609 514.274 38.0789 513.064C36.5106 512.2 36.2378 512.2 34.6695 513.064C32.5557 514.216 32.4194 516.463 34.3286 517.845C35.6242 518.824 35.6923 519.573 35.6923 542.498C35.6924 565.48 35.6242 566.171 34.3286 566.862C32.3512 567.899 32.4876 570.721 34.6695 571.931Z" fill="#DAE1E9"/>
<path d="M38.8294 193.388C40.0568 194.482 42.5797 194.598 43.7389 193.618C45.0345 192.524 44.6935 189.817 43.1934 189.01C41.9661 188.319 41.8297 187.628 41.8297 181.062L41.8297 180.015C41.8297 176.08 43.5785 172.348 46.6028 169.83C50.6258 166.431 51.7168 165.855 53.3533 165.971C57.3763 166.316 58.6719 161.075 54.7852 160.038C52.6714 159.462 50.0121 161.132 50.0121 163.091C50.0121 164.243 48.7848 165.74 45.239 168.793C42.2071 171.427 40.4659 175.247 40.4659 179.263L40.4659 180.601C40.4659 187.628 40.3296 188.319 39.1022 189.01C37.4657 189.874 37.3293 192.121 38.8294 193.388Z" fill="#DAE1E9"/>
<path d="M40.8065 211.359C42.3748 212.223 42.6476 212.223 44.2159 211.359C45.4433 210.668 45.9206 209.919 45.9206 208.537C45.9206 206.924 47.2161 205.599 56.8305 197.478C63.7491 191.634 67.7404 183.037 67.7404 173.981L67.7404 154.566C67.7404 121.504 67.7404 120.871 69.1042 120.122C71.8999 118.682 70.127 114.823 66.7176 114.823C63.2401 114.823 62.0127 119.2 65.0811 120.583C66.3085 121.159 66.3767 122.196 66.3767 154.451L66.3767 173.583C66.3767 182.527 62.4353 191.015 55.6031 196.787C47.9662 203.238 44.4204 205.83 43.3295 205.83C39.0337 205.83 37.3972 209.459 40.8065 211.359Z" fill="#DAE1E9"/>
<path d="M41.5559 238.316C43.9424 240.389 48.3746 238.316 47.5563 235.551C47.2836 234.572 51.5794 230.713 69.1035 215.91L79.5731 207.066C86.7709 200.986 90.9234 192.042 90.9234 182.62L90.9234 168.563C90.9234 140.8 90.9915 139.591 92.2189 139.072C93.9236 138.266 94.4009 136.999 93.6508 135.328C92.8326 133.485 90.5824 132.909 88.5368 134.061C86.423 135.213 86.2866 137.517 88.1959 138.842C89.5596 139.821 89.5596 140.57 89.5596 168.39L89.5596 182.014C89.5596 191.453 85.3919 200.411 78.1714 206.492L67.8761 215.161C49.8747 230.367 45.9199 233.362 44.4197 233.362C40.8058 233.305 39.1011 236.3 41.5559 238.316Z" fill="#DAE1E9"/>
<path d="M50.0113 283.877C55.8754 288.772 57.5119 290.558 57.5119 291.768C57.5119 293.438 59.0802 295.108 60.6485 295.108C62.9668 295.108 64.3306 293.956 64.3306 291.94C64.3306 289.694 62.4895 288.427 60.1712 289.06C59.0802 289.348 57.3073 288.139 51.375 282.897C46.6108 278.763 43.8744 272.766 43.8744 266.458L43.8744 264.293L43.8744 260.23C43.8744 255.136 46.1196 250.3 50.0113 247.013C54.5116 243.211 56.489 241.887 57.5119 242.002C61.194 242.52 63.2396 237.509 59.8984 236.242C57.1709 235.205 54.7844 236.415 54.7844 238.776C54.7844 240.447 53.8979 241.426 48.6475 245.861C44.7558 249.148 42.5107 253.984 42.5107 259.078L42.5107 264.293L42.5107 267.722C42.5107 273.949 45.2547 279.859 50.0113 283.877Z" fill="#DAE1E9"/>
<path d="M46.2614 588.865C47.7616 589.902 50.6254 589.095 51.1027 587.425C51.3073 586.676 51.3073 585.812 51.1027 585.524C50.8982 585.294 54.3757 582.011 58.8079 578.267C64.4674 573.486 67.1267 571.643 67.8768 571.873C70.6724 572.795 73.1272 569.454 71.0134 567.668C69.0359 565.998 65.3538 567.438 65.8311 569.799C66.1721 571.527 51.0345 584.257 48.648 584.257C47.6934 584.257 46.5342 584.545 46.0569 584.948C44.8977 585.927 45.0341 588.001 46.2614 588.865Z" fill="#DAE1E9"/>
<path d="M77.2859 725.663L93.2853 739.179C100.44 745.222 104.588 754.097 104.635 763.463L104.765 789.311L104.902 829.918L105.106 789.023L105.193 763.05C105.224 753.59 101.069 744.602 93.8429 738.498L77.9678 725.087L62.0432 711.636C54.8454 705.555 50.693 696.612 50.693 687.19L50.693 653.952L50.693 620.715C50.693 611.293 54.8454 602.349 62.0432 596.269L65.3532 593.473L68.6632 590.677C75.861 584.597 80.0134 575.654 80.0134 566.231L80.0134 552.462C80.0134 534.434 80.2862 523.778 80.6953 523.778C81.7181 523.778 82.8773 521.532 82.4 520.322C81.8545 518.882 78.9906 518.191 77.6269 519.17C76.1949 520.207 76.3313 522.511 77.9678 523.317C79.3316 524.066 79.3316 524.7 79.3316 552.29L79.3316 565.655C79.3316 575.078 75.1791 584.021 67.9813 590.101L64.6713 592.897L61.3613 595.693C54.1635 601.773 50.0111 610.717 50.0111 620.139L50.0111 653.952L50.0111 687.766C50.0111 697.188 54.1635 706.131 61.3613 712.212L77.2859 725.663Z" fill="#DAE1E9"/>
<path d="M56.3539 279.211C56.9676 279.902 57.9222 280.19 59.5587 280.017C61.468 279.902 62.0816 279.499 62.6271 278.174C63.1726 276.734 63.0363 276.389 61.3998 275.179C60.2439 274.347 59.5587 273.01 59.5587 271.586L59.5587 265.214C59.5587 257.15 59.6269 256.575 60.8543 256.229C63.5136 255.538 63.4454 251.736 60.8543 251.045C58.7405 250.469 56.2857 251.16 55.8084 252.485C55.1947 254.098 56.013 255.826 57.5813 256.229C58.8087 256.575 58.8768 257.15 58.8768 265.502C58.8768 270.571 58.6041 274.373 58.2632 274.373C57.1722 274.373 55.4675 276.101 55.4675 277.195C55.4675 277.713 55.8766 278.635 56.3539 279.211Z" fill="#DAE1E9"/>
<path d="M58.0575 208.883C60.444 210.726 62.967 209.689 62.967 206.982C62.967 205.888 64.9444 203.872 71.1494 198.63C76.3384 194.247 79.3319 187.8 79.3319 181.007L79.3319 162.228C79.3319 133.428 79.4001 132.622 80.6956 131.527C82.4003 130.087 82.4003 129.108 80.6956 127.783C77.7636 125.537 74.286 129.05 76.9453 131.527C77.8317 132.391 77.9681 136.423 77.9681 162.112L77.9681 181.27C77.9681 187.863 75.077 194.124 70.0584 198.4C63.3079 204.16 61.9441 205.024 60.444 204.793C59.2167 204.621 58.3984 204.851 57.7165 205.542C56.4892 206.982 56.6256 207.789 58.0575 208.883Z" fill="#DAE1E9"/>
<path d="M58.8758 687.36C60.5123 688.742 61.4669 688.8 63.5125 687.59C65.3536 686.496 65.4218 684.422 63.6489 683.04C62.2851 682.003 62.2851 681.254 62.2851 651.533C62.2851 621.87 62.3533 621.063 63.6489 619.969C65.3536 618.529 65.4218 616.974 63.7853 615.764C61.9442 614.382 59.7622 614.554 58.4667 616.225C57.2393 617.838 57.7166 619.681 59.6258 620.545C60.8532 621.121 60.9214 622.1 60.9214 651.476L60.9214 679.614C60.9214 680.976 60.2922 682.262 59.2167 683.098C57.1711 684.71 57.0347 685.805 58.8758 687.36Z" fill="#DAE1E9"/>
<path d="M58.6041 99.5017C60.6497 101.287 63.6499 100.25 63.6499 97.8313C63.6499 97.1401 63.0362 96.1033 62.2862 95.5273C60.9906 94.5481 60.9224 93.569 60.9224 44.0912C60.9224 22.2651 60.8381 3.50056 60.7027 -3.58256C60.6642 -5.59478 60.4953 -5.59084 60.4571 -3.57861C60.3235 3.46841 60.2405 22.07 60.2405 43.8608C60.2405 93.9146 60.2405 94.6633 58.8768 95.8153C57.2403 97.1977 57.1721 98.2921 58.6041 99.5017Z" fill="#DAE1E9"/>
<path d="M68.8984 698.65C69.3075 700.55 72.3078 701.472 74.2852 700.32C76.399 699.168 76.5354 696.288 74.5579 695.424C73.1942 694.79 73.1942 694.214 73.1942 655.45L73.1942 630.941C73.1942 621.534 77.3332 612.604 84.5111 606.524L97.8098 595.259C118.607 577.749 122.766 574.465 124.403 574.465C125.698 574.465 126.721 574.005 127.471 573.025C128.494 571.701 128.494 571.47 127.471 570.146C125.357 567.381 120.38 568.706 121.062 571.816C121.334 573.025 117.925 576.193 96.5824 594.164L83.1807 605.485C75.9829 611.565 71.8305 620.509 71.8305 629.931L71.8305 654.932C71.8305 688.973 71.6941 694.79 70.8758 695.021C69.5121 695.482 68.6257 697.152 68.8984 698.65Z" fill="#DAE1E9"/>
<path d="M69.5123 308.817C70.6715 310.2 73.7399 310.545 75.1036 309.393C76.3992 308.299 76.0582 305.592 74.5581 304.786C73.1944 304.037 73.1944 303.403 73.1944 273.797L73.1944 258.415C73.1944 248.993 77.3468 240.05 84.5446 233.97L99.1055 221.67L113.666 209.37C120.864 203.29 125.017 194.346 125.017 184.924L125.017 163.206L125.017 141.489C125.017 132.067 120.864 123.123 113.666 117.043L103.879 108.775L94.1297 100.567C86.9086 94.4864 82.7406 85.5281 82.7406 76.0882L82.7406 42.1327C82.7406 9.93472 82.536 -6.71148 82.0587 -6.71148C81.5814 -6.71148 81.3768 10.1075 81.3768 42.5935L81.3768 77.0716C81.3768 86.476 85.5137 95.4043 92.6883 101.484L102.515 109.812L112.341 118.139C119.516 124.219 123.653 133.148 123.653 142.552L123.653 163.437L123.653 184.348C123.653 193.77 119.5 202.714 112.303 208.794L97.7417 221.094L83.1809 233.394C75.983 239.474 71.8306 248.417 71.8306 257.839L71.8306 273.336L71.8306 301.46C71.8306 302.875 71.207 304.218 70.126 305.131C68.1485 306.801 68.0803 307.089 69.5123 308.817Z" fill="#DAE1E9"/>
<path d="M91.947 122.887L100.03 129.715C107.228 135.795 111.38 144.738 111.38 154.16L111.38 163.033C111.38 186.073 111.312 186.88 110.017 187.974C108.176 189.529 108.312 190.623 110.289 191.718C111.585 192.467 112.267 192.524 113.358 192.006C115.267 191.199 115.267 188.492 113.426 187.513C112.13 186.822 112.062 186.188 112.062 162.745L112.062 153.584C112.062 144.162 107.91 135.219 100.712 129.139L92.6289 122.311L84.492 115.437C77.3251 109.383 73.176 100.489 73.142 91.1077L72.991 49.4476L72.8546 -6.99968L72.65 49.7356L72.5495 91.5664C72.5268 101.015 76.6813 109.991 83.8996 116.089L91.947 122.887Z" fill="#DAE1E9"/>
<path d="M74.0139 224.722C76.1277 226.508 79.9461 224.492 79.0597 222.073C78.787 221.324 81.7872 218.386 90.2424 211.302L90.484 211.098C97.6818 205.018 101.834 196.074 101.834 186.652L101.834 177.779C101.834 154.624 101.834 153.99 103.198 153.414C105.721 152.262 104.698 148.807 101.902 148.807C98.493 148.807 97.2657 151.226 99.7886 153.126C101.084 154.163 101.152 154.912 101.152 177.549L101.152 186.076C101.152 195.498 96.9999 204.442 89.8021 210.522L89.5605 210.726C80.9689 217.983 77.5596 220.46 76.5368 220.345C73.7411 219.942 71.9682 222.994 74.0139 224.722Z" fill="#DAE1E9"/>
<path d="M75.241 766.271C76.673 767.48 76.673 767.941 76.6048 798.526C76.6048 818.225 76.8093 829.63 77.2185 829.63C77.6276 829.63 77.9685 818.168 78.1049 798.872L78.2959 770.154C78.3045 768.853 78.8527 767.613 79.8096 766.731C81.787 764.946 81.787 763.103 79.8777 762.008C77.8321 760.799 76.8775 760.856 75.241 762.239C73.5363 763.679 73.5363 764.831 75.241 766.271Z" fill="#DAE1E9"/>
<path d="M79.7414 281.515C81.8552 283.301 84.7872 282.264 84.7872 279.729C84.7872 278.981 84.1736 278.117 83.4235 277.713C82.1279 277.022 82.0598 276.331 82.0598 263.141C82.0598 254.374 85.9232 246.053 92.6201 240.396L108.789 226.738C131.223 207.788 135.859 204.159 137.087 204.447C138.178 204.678 138.86 204.39 139.678 203.353C141.178 201.337 140.087 199.494 137.291 199.494C135.041 199.494 134.359 200.185 134.427 202.374C134.427 203.641 130.064 207.615 107.903 226.335L92.1583 239.635C85.3218 245.409 81.3779 253.904 81.3779 262.853C81.3779 276.273 81.3097 277.022 80.0141 278.001C78.3776 279.153 78.3095 280.305 79.7414 281.515Z" fill="#DAE1E9"/>
<path d="M81.3767 715.007C82.195 715.353 83.4223 715.583 84.1042 715.468C85.0588 715.353 90.0365 719.154 101.833 729.119L106.848 733.355C114.045 739.435 118.198 748.379 118.198 757.801L118.198 786.258C118.198 814.769 118.402 829.63 118.88 829.63C119.357 829.63 119.562 814.654 119.562 785.797L119.562 756.844C119.562 747.376 115.369 738.394 108.11 732.314L103.197 728.198C89.0819 716.39 86.8317 714.258 86.8317 712.761C86.8317 711.033 85.3316 709.247 83.8996 709.247C80.4903 709.247 78.581 713.74 81.3767 715.007Z" fill="#DAE1E9"/>
<path d="M84.1056 641.281C85.4693 641.857 85.4693 642.491 85.4693 670.945L85.4693 685.204C85.4693 694.609 89.6066 703.538 96.782 709.618L107.289 718.522L121.99 730.979C126.505 734.805 129.109 740.424 129.109 746.342C129.109 754.982 129.041 755.673 127.745 756.364C125.972 757.286 125.972 758.899 127.745 760.223C128.905 761.087 129.382 761.145 130.814 760.627C132.996 759.763 133.2 756.825 131.155 755.904C129.859 755.328 129.791 754.694 129.791 745.939C129.791 739.985 127.167 734.334 122.619 730.492L107.971 718.118L97.5391 709.334C90.3188 703.254 86.1512 694.296 86.1512 684.856L86.1512 670.772C86.1512 645.889 86.2876 641.799 87.174 641.511C89.7651 640.647 88.7423 636.673 85.9466 636.673C82.81 636.673 81.4463 640.071 84.1056 641.281Z" fill="#DAE1E9"/>
<path d="M83.5598 622.733C85.6736 624.519 89.4921 622.503 88.6057 620.084C88.3329 619.335 95.1516 613.229 114.79 596.641L130.514 583.358C137.406 577.536 141.383 568.972 141.383 559.95C141.383 546.299 141.451 545.666 142.746 545.09C145.337 543.938 144.042 540.482 141.042 540.482C137.973 540.482 136.95 543.189 139.337 544.917C140.632 545.896 140.701 546.645 140.701 559.777C140.701 568.544 136.837 576.865 130.14 582.522L114.039 596.123C93.5833 613.46 87.1056 618.586 86.0828 618.413C83.4235 617.78 81.5824 621.063 83.5598 622.733Z" fill="#DAE1E9"/>
<path d="M91.5377 66.5552C92.9014 67.2464 92.9696 67.8224 92.9696 76.8078C92.9696 82.8348 95.6257 88.5554 100.23 92.4446L114.79 104.744L125.259 113.587C132.457 119.668 136.609 128.611 136.609 138.033L136.609 151.86C136.609 179.795 136.541 180.659 135.246 182.042C134.018 183.367 133.95 183.712 134.768 184.749C136.473 186.88 139.405 186.535 140.292 184.115C140.632 183.194 140.36 182.56 139.405 181.811C137.973 180.832 137.973 180.371 137.973 151.975L137.973 138.033C137.973 128.611 133.821 119.668 126.623 113.587L115.812 104.456L100.692 91.6828C96.2271 87.9114 93.6515 82.3642 93.6515 76.5198C93.6515 67.9375 93.7197 67.2464 95.0152 66.5552C96.9927 65.5184 96.7881 63.0992 94.6061 62.2928C92.3559 61.4288 90.6513 62.2352 90.3785 64.3088C90.2421 65.3456 90.5831 66.0368 91.5377 66.5552Z" fill="#DAE1E9"/>
<path d="M91.0613 53.0761C91.5386 53.4793 92.4932 53.7673 93.3114 53.7673C96.3799 53.7673 97.539 50.4842 95.0161 48.9866C93.7206 48.2378 93.6524 47.4314 93.4478 20.5901L93.3114 -6.99993L93.1069 20.6477C92.9705 47.6042 92.9023 48.353 91.6068 49.0442C90.1066 49.8506 89.7657 51.9818 91.0613 53.0761Z" fill="#DAE1E9"/>
<path d="M95.8333 253.522C96.3106 253.925 97.4698 254.213 98.4244 254.213C100.743 254.213 101.834 253.234 101.834 251.045C101.834 249.548 104.834 246.783 126.381 228.581L139.578 217.434C146.776 211.353 150.929 202.41 150.929 192.988L150.929 167.987C150.929 128.762 150.929 128.128 152.292 127.495C154.27 126.631 154.747 124.269 153.315 122.887C151.747 121.447 149.428 121.389 147.997 122.772C146.496 124.212 146.565 125.536 148.201 126.919C149.565 128.071 149.565 128.819 149.565 167.411L149.565 191.951C149.565 201.373 145.412 210.317 138.215 216.397L124.881 227.66C108.243 241.714 99.9246 248.396 99.2427 248.165C98.6972 247.992 97.538 248.28 96.6516 248.741C94.8787 249.72 94.4014 252.312 95.8333 253.522Z" fill="#DAE1E9"/>
<path d="M118.881 713.567L128.669 721.835C135.867 727.915 140.019 736.859 140.019 746.281L140.019 780.498C140.019 812.868 140.224 829.63 140.701 829.63C141.178 829.63 141.383 812.753 141.383 780.21L141.383 745.705C141.383 736.283 137.23 727.339 130.033 721.259L120.245 712.991L110.457 704.723C103.259 698.643 99.1068 689.7 99.1068 680.278L99.1068 659.424L99.1068 638.57C99.1068 629.148 103.259 620.205 110.457 614.125L125.018 601.825L139.647 589.467C146.845 583.387 150.997 574.444 150.997 565.022L150.997 549.87L150.935 522.279C150.931 520.696 151.569 519.18 152.702 518.075C154.884 515.887 154.543 513.64 151.884 512.834C149.634 512.085 147.656 512.949 147.111 514.907C146.77 516.002 147.111 516.751 148.474 517.96C149.601 518.949 150.247 520.375 150.247 521.874L150.247 549.179L150.247 563.927C150.247 573.349 146.095 582.293 138.897 588.373L123.995 600.961L109.093 613.549C101.896 619.629 97.7431 628.572 97.7431 637.994L97.7431 659.424L97.7431 680.854C97.7431 690.276 101.896 699.219 109.093 705.299L118.881 713.567Z" fill="#DAE1E9"/>
<path d="M119.563 94.3754C133.814 106.414 135.928 108.43 135.928 109.927C135.928 112.116 137.019 113.095 139.473 113.095C140.701 113.095 141.724 112.634 142.474 111.655C143.496 110.33 143.496 110.1 142.474 108.775C141.655 107.738 140.769 107.335 139.132 107.335C137.155 107.335 135.178 105.895 120.722 93.6267L115.912 89.5634C108.714 83.4833 104.562 74.54 104.562 65.1178L104.562 36.6033C104.562 8.09169 104.357 -6.71132 103.88 -6.71132C103.402 -6.71132 103.198 8.2069 103.198 36.9489L103.198 65.6938C103.198 75.116 107.35 84.0593 114.548 90.1394L119.563 94.3754Z" fill="#DAE1E9"/>
<path d="M109.335 635.059C110.63 635.751 110.698 636.442 110.698 659.712L110.698 668.758C110.698 678.18 114.851 687.123 122.049 693.203L130.132 700.031L138.215 706.859C145.413 712.94 149.565 721.883 149.565 731.305L149.565 773.01C149.565 811.313 149.77 829.63 150.247 829.63C150.724 829.63 150.929 811.371 150.929 773.183L150.878 731.512C150.867 722.103 146.716 713.176 139.528 707.105L131.086 699.974L122.689 692.856C115.516 686.776 111.38 677.848 111.38 668.445L111.38 659.539C111.38 636.211 111.38 635.808 112.812 635.059C113.767 634.541 114.108 633.85 113.971 632.813C113.699 630.74 111.994 629.933 109.744 630.797C107.562 631.604 107.357 634.023 109.335 635.059Z" fill="#DAE1E9"/>
<path d="M109.402 564.846C112.675 566.805 115.607 563.521 112.812 560.987C111.448 559.778 111.38 559.144 111.38 547.509C111.38 535.931 111.448 535.298 112.743 534.722C114.584 533.858 114.584 530.92 112.675 530.114C111.584 529.595 110.902 529.653 109.607 530.402C107.629 531.496 107.493 533.282 109.334 534.261C110.63 534.952 110.698 535.643 110.698 547.682C110.698 559.72 110.63 560.411 109.334 561.102C107.561 562.024 107.561 563.809 109.402 564.846Z" fill="#DAE1E9"/>
<path d="M109.47 292.114C109.948 292.517 110.902 292.805 111.72 292.805C114.721 292.805 116.016 289.349 113.425 288.197C112.13 287.621 112.061 286.987 112.061 275.064C112.061 263.199 112.13 262.508 113.425 261.817C116.357 260.319 114.38 256.633 111.039 257.324C108.652 257.842 107.97 260.434 109.879 261.759C111.311 262.738 111.379 263.141 111.379 275.122C111.379 286.699 111.311 287.506 110.016 288.485C108.447 289.637 108.243 291.077 109.47 292.114Z" fill="#DAE1E9"/>
<path d="M144.791 97.2555L160.716 110.707C167.914 116.788 172.066 125.731 172.066 135.153L172.066 168.679L172.066 202.191C172.066 211.588 167.936 220.509 160.772 226.589L157.406 229.446L154.04 232.302C146.876 238.382 142.746 247.304 142.746 256.701L142.746 270.226C142.746 297.413 142.678 298.623 141.45 299.659C139.2 301.56 141.177 304.843 144.109 304.037C146.087 303.519 147.041 301.733 146.155 300.293C145.746 299.659 145.132 299.141 144.791 299.141C144.382 299.141 144.109 288.485 144.109 270.457L144.109 256.688C144.109 247.265 148.262 238.322 155.46 232.242L158.429 229.734L161.398 227.226C168.596 221.146 172.748 212.202 172.748 202.78L172.748 168.679L172.748 134.577C172.748 125.155 168.596 116.212 161.398 110.131L145.473 96.6796L129.503 83.2232C122.331 77.1796 118.171 68.2935 118.123 58.9143L117.994 33.3203L117.857 -6.99917L117.653 33.6083L117.567 59.2928C117.535 68.7524 121.69 77.7414 128.917 83.8458L144.791 97.2555Z" fill="#DAE1E9"/>
<path d="M119.016 673.42C119.494 673.824 120.448 674.112 121.267 674.112C124.335 674.112 125.562 670.713 122.971 669.388C121.676 668.697 121.608 668.006 121.608 645.312L121.608 636.842C121.608 627.42 125.76 618.477 132.958 612.396L133.336 612.077C143.086 603.898 145.405 602.17 146.632 602.458C147.723 602.688 148.405 602.4 149.223 601.364C150.723 599.348 149.632 597.505 146.837 597.505C144.587 597.505 143.905 598.196 143.973 600.384C143.973 601.652 141.859 603.725 132.449 611.674L132.276 611.82C125.078 617.901 120.926 626.844 120.926 636.266L120.926 645.139C120.926 668.294 120.926 668.928 119.562 669.504C118.062 670.195 117.721 672.326 119.016 673.42Z" fill="#DAE1E9"/>
<path d="M127.744 773.644C129.039 774.68 129.107 775.602 129.312 802.328L129.448 829.918L129.653 802.155C129.789 775.026 129.789 774.335 131.153 773.759C133.744 772.607 132.449 769.151 129.448 769.151C126.38 769.151 125.357 771.801 127.744 773.644Z" fill="#DAE1E9"/>
<path d="M129.927 688.397C130.404 688.8 131.563 689.088 132.518 689.088C133.472 689.088 134.632 688.8 135.109 688.397C136.404 687.303 136.064 684.595 134.563 683.789C133.2 683.04 133.2 682.407 133.2 654.529L133.2 640.875C133.2 631.453 137.352 622.509 144.55 616.429L154.883 607.7C173.771 591.745 176.771 589.441 178.612 589.441C181.135 589.441 182.294 588.52 182.294 586.446C182.294 585.409 181.749 584.545 180.59 583.912C179.021 583.048 178.749 583.048 177.18 583.912C175.953 584.603 175.476 585.352 175.476 586.734C175.476 588.405 173.294 590.421 153.656 607.009L143.186 615.853C135.988 621.933 131.836 630.877 131.836 640.299L131.836 654.241C131.836 682.407 131.836 683.04 130.472 683.789C128.972 684.595 128.631 687.303 129.927 688.397Z" fill="#DAE1E9"/>
<path d="M157.406 88.9035L174.354 103.219C181.552 109.3 185.704 118.243 185.704 127.665L185.704 161.767L185.704 195.868C185.704 205.29 189.856 214.234 197.054 220.314L201.728 224.262L206.402 228.21C213.6 234.29 217.752 243.233 217.752 252.655L217.752 274.949C217.752 311.467 217.752 312.101 216.388 312.85C215.638 313.253 215.024 314.174 215.024 314.923C215.024 318.322 220.002 319.243 221.707 316.248C222.593 314.693 222.525 314.462 220.889 313.022C219.762 312.034 219.116 310.608 219.116 309.109L219.116 274.316L219.116 252.079C219.116 242.657 214.963 233.714 207.765 227.634L203.092 223.686L198.418 219.738C191.22 213.658 187.068 204.714 187.068 195.292L187.068 161.191L187.068 127.089C187.068 117.667 182.915 108.724 175.718 102.643L158.77 88.3275L141.823 74.0116C134.625 67.9315 130.472 58.9882 130.472 49.566L130.472 28.885C130.472 5.55735 130.268 -6.7113 129.791 -6.7113C129.313 -6.7113 129.109 5.61493 129.109 29.173L129.109 50.142C129.109 59.5642 133.261 68.5075 140.459 74.5876L157.406 88.9035Z" fill="#DAE1E9"/>
<path d="M141.86 695.021C142.883 695.885 146.156 695.424 146.837 694.272C147.588 693.062 146.701 690.816 145.474 690.816C145.065 690.816 144.792 679.757 144.792 660.98L144.792 641.644C144.792 635.021 147.711 628.735 152.77 624.462C159.452 618.817 161.089 617.723 162.384 618.011C165.18 618.644 167.225 615.534 165.112 613.748C163.134 612.078 159.452 613.518 159.929 615.879C160.066 616.686 157.747 619.047 151.747 624.174C146.425 628.743 143.369 635.413 143.385 642.427L143.428 660.864C143.496 687.245 143.428 690.471 142.473 690.931C141.382 691.45 140.973 694.272 141.86 695.021Z" fill="#DAE1E9"/>
<path d="M142.133 60.2189C143.087 61.6589 147.247 61.6013 148.201 60.1613C149.224 58.4333 149.02 57.3965 147.383 56.1293C146.48 55.4024 145.962 54.2994 145.98 53.1398L146.429 24.1041C146.701 6.36355 146.633 -6.71149 146.292 -6.71149C145.474 -6.71149 144.792 13.7363 144.792 36.6032L144.792 52.6307C144.792 54.0458 144.168 55.389 143.087 56.3021C141.246 57.8573 141.042 58.6637 142.133 60.2189Z" fill="#DAE1E9"/>
<path d="M151.747 255.25C152.224 255.653 153.179 255.941 153.997 255.941C155.906 255.941 157.065 254.847 157.065 253.061C157.065 251.045 172.135 238.258 174.18 238.546C176.976 238.949 178.681 235.839 176.703 234.169C174.589 232.383 170.771 234.399 171.657 236.818C171.93 237.567 169.884 239.698 164.225 244.421C157.406 250.181 156.111 250.988 154.406 250.872C151.542 250.584 149.769 253.58 151.747 255.25Z" fill="#DAE1E9"/>
<path d="M153.656 706.944C155.293 708.326 156.247 708.384 158.293 707.174C160.202 706.08 160.27 703.718 158.429 702.797C157.065 702.048 157.065 701.414 157.065 668.352L157.065 648.671C157.065 639.784 160.982 631.349 167.771 625.614C176.635 618.183 178.817 616.571 180.045 616.859C181.613 617.204 184.34 615.419 184.34 613.921C184.34 612.712 181.886 610.753 180.385 610.753C178.544 610.753 176.703 612.712 176.976 614.44C177.112 615.707 175.476 617.377 166.407 625.038C159.577 630.808 155.644 639.3 155.662 648.241L155.702 667.719L155.702 699.242C155.702 700.528 155.063 701.731 153.997 702.451C151.951 703.834 151.815 705.389 153.656 706.944Z" fill="#DAE1E9"/>
<path d="M157.747 1.69805C158.02 2.38924 158.77 3.08042 159.383 3.25322C160.338 3.59882 160.474 7.11237 160.474 37.5248L160.474 56.5354C160.474 65.9576 164.627 74.9008 171.825 80.981L179.908 87.809L187.948 94.5774C195.172 100.658 199.341 109.617 199.341 119.059L199.341 150.88C199.341 196.844 199.341 197.593 197.977 198.63C195.182 200.761 197.432 204.62 200.978 203.872C204.25 203.18 204.932 199.609 202 198.342C200.705 197.766 200.705 196.614 200.705 150.65L200.705 118.449C200.705 109.027 196.552 100.084 189.355 94.0034L181.271 87.1754L173.188 80.3474C165.991 74.2672 161.838 65.324 161.838 55.9018L161.838 37.2944C161.838 4.578 161.838 3.82921 163.202 2.79242C164.907 1.46764 164.975 -0.490736 163.338 -1.70032C161.634 -2.9675 160.065 -2.90991 158.429 -1.52752C156.929 -0.260343 156.86 -0.0875376 157.747 1.69805Z" fill="#DAE1E9"/>
<path d="M159.112 206.982C160.749 208.364 161.703 208.422 163.749 207.212C165.59 206.118 165.658 204.044 163.885 202.662C162.521 201.625 162.521 200.876 162.521 171.04C162.521 141.088 162.521 140.455 163.885 139.706C166.885 138.151 164.363 133.888 160.885 134.637C158.635 135.098 157.544 136.826 158.362 138.611C158.703 139.36 159.521 140.167 160.067 140.339C161.021 140.685 161.158 143.968 161.158 171.04L161.158 199.236C161.158 200.598 160.529 201.884 159.453 202.719C157.407 204.332 157.271 205.427 159.112 206.982Z" fill="#DAE1E9"/>
<path d="M159.247 532.879C159.725 533.282 161.02 533.57 162.179 533.57C163.884 533.57 165.452 534.607 171.589 539.791C176.216 543.699 178.885 549.448 178.885 555.504L178.885 558.395L178.885 562.788C178.885 567.885 176.61 572.716 172.68 575.963C168.316 579.592 166.134 581.032 165.111 580.916C163.339 580.628 161.157 582.356 161.157 583.969C161.157 585.409 163.134 587.137 164.771 587.137C166.612 587.137 168.794 584.891 168.384 583.451C168.112 582.414 169.203 581.204 174.112 577.057C178.004 573.77 180.249 568.934 180.249 563.84L180.249 558.626L180.249 555.196C180.249 548.97 177.505 543.06 172.748 539.042C166.612 533.858 165.248 532.475 165.384 531.208C165.589 529.135 164.157 527.81 161.77 527.81C158.906 527.81 157.27 531.208 159.247 532.879Z" fill="#DAE1E9"/>
<path d="M159.794 482.709C161.089 483.688 161.158 484.437 161.158 500.738L161.158 502.872C161.158 512.294 165.31 521.237 172.508 527.317L183.659 536.737L194.811 546.157C202.009 552.238 206.161 561.181 206.161 570.603L206.161 613.632L206.161 656.642C206.161 666.042 202.028 674.968 194.858 681.048L188.773 686.208L182.736 691.308C175.538 697.388 171.386 706.331 171.386 715.753L171.386 765.291C171.386 807.8 171.59 829.63 172.068 829.63C172.545 829.63 172.749 807.857 172.749 765.522L172.749 716.329C172.749 706.907 176.902 697.964 184.1 691.884L190.137 686.784L196.175 681.684C203.372 675.603 207.525 666.66 207.525 657.238L207.525 613.632L207.525 570.027C207.525 560.605 203.372 551.662 196.175 545.581L185.023 536.161L173.835 526.682C166.659 520.602 162.521 511.673 162.521 502.267L162.521 500.68L162.521 486.366C162.521 485.004 163.151 483.718 164.226 482.882C165.181 482.133 165.931 481.096 165.931 480.521C165.931 477.929 160.544 476.546 159.112 478.793C158.089 480.463 158.294 481.615 159.794 482.709Z" fill="#DAE1E9"/>
<path d="M160.474 727.276C161.837 728.083 161.837 728.831 162.042 779L162.178 829.918L162.383 778.828C162.519 728.371 162.519 727.737 163.883 727.103C166.474 725.951 165.179 722.496 162.178 722.496C159.11 722.496 157.951 725.779 160.474 727.276Z" fill="#DAE1E9"/>
<path d="M160.815 570.895C162.793 573.257 167.293 571.989 167.293 569.052C167.293 568.361 166.543 567.209 165.588 566.517C163.952 565.308 163.884 565.077 163.884 557.302C163.884 549.526 163.952 549.295 165.588 548.086C167.77 546.473 167.838 544.226 165.588 543.017C163.543 541.865 161.292 542.441 160.406 544.342C159.724 545.897 160.474 547.625 162.179 548.201C163.065 548.431 163.202 549.986 163.202 557.417C163.202 565.826 163.134 566.345 161.838 566.69C161.088 566.863 160.474 567.266 160.474 567.554C160.474 567.842 160.338 568.361 160.133 568.821C159.929 569.225 160.27 570.146 160.815 570.895Z" fill="#DAE1E9"/>
<path d="M166.749 661.901C167.226 662.305 168.385 662.593 169.34 662.593C171.59 662.593 172.749 661.613 172.749 659.713C172.749 658.618 174.045 657.121 177.523 654.125C180.549 651.569 182.296 647.808 182.296 643.845L182.296 642.548C182.296 635.29 182.364 634.945 184 633.562C185.705 632.122 185.705 631.028 184.137 629.3C183.318 628.436 180.114 628.379 179.023 629.3C177.727 630.395 178.068 633.102 179.568 633.908C180.796 634.599 180.932 635.29 180.932 641.914L180.932 643.234C180.932 647.029 179.23 650.625 176.295 653.031C172.681 656.026 171.249 656.833 169.613 656.833C167.09 656.833 165.931 657.754 165.931 659.713C165.931 660.519 166.272 661.498 166.749 661.901Z" fill="#DAE1E9"/>
<path d="M170.362 682.867C171.794 683.385 172.272 683.327 173.499 682.406C174.385 681.772 174.794 680.851 174.59 680.102C174.385 679.065 176.295 677.164 183.795 670.828C189.762 665.788 193.205 658.373 193.205 650.562L193.205 616.512C193.205 570.375 193.205 570.087 194.637 569.108C196.342 567.841 196.137 565.94 194.228 564.903C193 564.212 192.591 564.27 191.296 565.018C189.455 566.113 189.387 567.61 191.159 568.993C192.523 570.03 192.523 570.778 192.523 616.167L192.523 650.023C192.523 657.807 189.078 665.193 183.113 670.195C175.408 676.646 173.431 678.028 171.794 678.028C168.385 677.971 167.294 681.657 170.362 682.867Z" fill="#DAE1E9"/>
<path d="M182.295 73.0635C188.5 78.3051 190.478 80.3211 190.478 81.4154C190.478 83.2586 191.637 84.2954 193.682 84.2954C195.455 84.2954 196.887 82.4522 196.274 80.8395C195.864 79.6875 193.137 78.7083 191.978 79.3419C191.705 79.4571 187.682 76.4619 183.113 72.6028C177.834 68.1434 174.772 61.5965 174.733 54.6862L174.59 29.2881L174.454 -6.99946L174.249 29.5761L174.153 55.4406C174.127 62.23 177.109 68.6823 182.295 73.0635Z" fill="#DAE1E9"/>
<path d="M180.18 744.325C182.635 746.399 186.658 744.095 185.022 741.503C184.613 740.869 183.999 740.351 183.658 740.351C183.249 740.351 182.976 734.015 182.976 723.762L182.976 721.87C182.976 712.587 187.067 703.776 194.159 697.785C200.978 692.025 205.614 688.512 206.092 688.8C207.251 689.376 210.251 687.533 210.251 686.265C210.251 684.71 208.069 683.328 206.296 683.731C204.796 684.019 203.637 686.208 204.387 687.245C204.523 687.475 199.546 692.083 193.136 697.497L192.963 697.644C185.765 703.724 181.612 712.667 181.612 722.089L181.612 723.474C181.612 739.026 181.544 739.833 180.249 740.927C178.544 742.367 178.544 742.943 180.18 744.325Z" fill="#DAE1E9"/>
<path d="M181.34 232.556C181.886 233.074 183.181 233.477 184.204 233.477C185.636 233.477 188.091 235.205 195.046 240.965C200.789 245.707 204.115 252.766 204.115 260.214L204.115 268.613C204.115 288.139 204.047 288.773 202.751 289.349C200.705 290.27 200.91 293.093 203.092 294.302C204.66 295.166 204.933 295.166 206.501 294.302C208.683 293.093 208.888 290.27 206.842 289.349C205.547 288.773 205.478 288.139 205.478 268.152L205.478 259.639C205.478 251.998 202.111 244.744 196.273 239.813C191.227 235.551 187.204 231.692 187.409 231.289C187.954 230.079 186.591 227.833 185.022 227.429C181.613 226.508 178.749 230.425 181.34 232.556Z" fill="#DAE1E9"/>
<path d="M183.727 309.048C184.818 310.604 188.159 310.373 189.522 308.645C190.545 307.32 190.545 307.09 189.522 305.765C188.909 304.959 188.091 304.325 187.75 304.325C187.34 304.325 187.068 295.628 187.068 280.421C187.068 257.439 187.136 256.518 188.363 255.942C191.091 254.732 190.682 251.276 187.75 250.47C185.772 249.951 182.976 251.622 182.976 253.292C182.976 253.983 183.59 255.078 184.34 255.654C185.636 256.691 185.704 257.439 185.704 280.364C185.704 303.404 185.636 304.095 184.34 304.786C182.84 305.535 182.567 307.436 183.727 309.048Z" fill="#DAE1E9"/>
<path d="M191.159 739.2C194.568 740.755 197.637 737.126 194.705 735.11C193.273 734.188 193.205 733.67 193.205 723.245L193.205 720.895C193.205 715.518 195.575 710.414 199.682 706.944C204.797 702.624 206.501 701.53 207.865 701.645C209.774 701.875 211.888 699.629 211.206 698.131C210.729 696.979 208.615 696.403 206.842 696.864C205.819 697.152 205.478 697.728 205.478 699.053C205.478 700.666 204.524 701.76 199.001 706.368C194.893 709.838 192.523 714.942 192.523 720.319L192.523 722.841C192.523 733.094 192.455 733.9 191.159 734.88C189.386 736.204 189.386 738.393 191.159 739.2Z" fill="#DAE1E9"/>
<path d="M198.387 91.496C199.001 92.0144 200.228 92.36 201.115 92.2448C202.342 92.1296 203.91 93.1087 207.865 96.3919C211.106 99.0927 212.979 103.093 212.979 107.312L212.979 112.808C212.979 124.212 212.911 125.019 211.615 125.94C210.865 126.459 210.252 127.265 210.252 127.726C210.252 128.878 212.161 130.375 213.593 130.375C216.457 130.375 217.343 127.265 215.025 125.48C213.729 124.5 213.661 123.694 213.661 112.289L213.661 106.736C213.661 102.517 211.787 98.5167 208.547 95.8159C204.797 92.7056 203.433 91.1504 203.433 90.056C203.433 89.2496 203.092 88.2704 202.615 87.8672C201.387 86.8304 198.796 87.0608 197.978 88.2704C197.023 89.8256 197.091 90.4016 198.387 91.496Z" fill="#DAE1E9"/>
<path d="M201.455 536.45C202.205 536.853 203.364 536.968 203.978 536.738C204.728 536.507 207.047 538.063 211.751 542.037C215.989 545.617 218.434 550.882 218.434 556.429L218.434 572.507C218.434 594.567 218.297 597.447 217.343 597.735C216.661 597.966 216.388 598.657 216.525 599.924C216.729 601.595 217.002 601.825 218.911 601.998C220.548 602.113 221.23 601.883 221.843 601.019C222.593 599.751 221.775 597.505 220.479 597.505C220.07 597.505 219.798 588.232 219.798 572.565L219.798 556.965C219.798 551.078 217.203 545.49 212.706 541.691C207.524 537.314 205.751 535.471 205.956 534.664C206.706 532.418 202.819 530.863 200.842 532.533C199.546 533.627 199.887 535.759 201.455 536.45Z" fill="#DAE1E9"/>
</g>
</svg>
