<svg width="1490" height="1608" viewBox="0 0 1490 1608" fill="none" xmlns="http://www.w3.org/2000/svg">
<g opacity="0.08">
<path d="M1314.42 320.603C1284.6 320.603 1260.55 344.659 1260.55 374.474C1260.55 376.265 1260.68 378.185 1260.8 379.848C1250.57 398.274 1242.25 417.596 1235.98 437.558C1264 432.823 1293.95 429.112 1325.94 426.937C1349.99 421.819 1368.03 400.194 1368.03 374.474C1368.03 344.659 1343.98 320.603 1314.42 320.603ZM1266.56 266.22C1266.56 236.406 1242.51 212.35 1212.69 212.35C1183 212.35 1158.95 236.406 1158.95 266.22C1158.95 273.386 1160.36 280.296 1162.92 286.566C1131.82 364.621 1088.19 437.43 1033.04 501.793C1066.82 485.542 1106.49 469.547 1153.06 456.368C1181.21 412.734 1205.01 366.54 1224.72 318.684C1248.65 313.181 1266.56 291.812 1266.56 266.22ZM1097.4 133.015C1097.4 103.328 1073.34 79.2721 1043.53 79.2721C1013.84 79.2721 989.786 103.328 989.786 133.015C989.786 139.029 990.81 144.787 992.602 150.161C986.971 158.095 980.317 165.261 972.64 171.659C958.82 183.047 942.953 190.98 925.935 194.819C931.565 174.346 936.172 153.488 940.522 132.503C959.332 124.186 972.512 105.248 972.512 83.3668C972.512 53.6802 948.456 29.6239 918.641 29.6239C888.955 29.6239 864.898 53.6802 864.898 83.3668C864.898 94.4992 868.225 104.608 873.983 113.181C852.998 220.667 812.947 322.906 754.981 416.444V94.7551C766.242 84.9023 773.407 70.4429 773.407 54.32C773.407 24.5056 749.351 0.449219 719.537 0.449219C689.85 0.449219 665.794 24.5056 665.794 54.32C665.794 71.2106 673.599 86.3098 685.755 96.1627V552.081C622.928 508.959 556.389 473.258 486.907 445.363C486.651 417.852 482.684 391.108 475.391 365.389C563.938 311.39 616.53 213.117 613.459 110.238C620.112 101.281 624.079 90.2765 624.079 78.2484C624.079 48.4339 600.023 24.3776 570.336 24.3776C540.522 24.3776 516.466 48.4339 516.466 78.2484C516.466 98.7218 527.854 116.38 544.489 125.465C542.441 195.203 506.997 260.59 449.031 300.258C427.918 261.358 398.615 227.449 363.426 200.577C362.147 171.914 338.73 149.138 309.812 149.138C279.997 149.138 255.941 173.194 255.941 203.009C255.941 232.695 279.997 256.751 309.812 256.751C313.906 256.751 317.745 256.368 321.456 255.472C373.023 294.627 408.084 353.744 416.018 419.899C340.266 395.843 261.571 380.616 180.701 374.346C171.232 358.735 154.213 348.114 134.635 348.114C104.821 348.114 80.7646 372.171 80.7646 401.857C80.7646 431.672 104.821 455.728 134.635 455.728C147.815 455.728 159.971 450.865 169.312 442.932C188.122 444.212 206.804 446.003 225.231 448.306C194.392 483.367 153.573 507.167 109.172 517.276C99.3187 505.632 84.6034 498.21 68.0967 498.21C38.2822 498.21 14.2259 522.267 14.2259 551.953C14.2259 581.64 38.2822 605.824 68.0967 605.824C83.9636 605.824 98.1671 598.786 108.02 587.91C185.563 574.858 256.836 530.456 301.878 461.23C400.407 481.959 494.585 518.044 582.109 568.46C543.465 578.185 503.414 583.303 462.723 583.303V652.401C530.029 652.401 595.544 640.501 657.988 617.084C667.329 623.738 676.542 630.392 685.628 637.302V814.781C719.025 774.218 751.782 732.887 787.483 692.836C776.734 698.21 765.858 703.329 754.725 708.063V537.75C818.961 454.576 868.737 363.341 903.286 266.732C944.745 266.22 984.412 251.761 1016.79 224.89C1030.35 213.501 1042.12 200.449 1051.59 186.246C1077.69 182.023 1097.4 159.886 1097.4 133.015ZM960.484 419.899C960.484 392.516 938.475 370.507 911.092 370.507C883.708 370.507 861.699 392.516 861.699 419.899C861.699 431.927 865.922 442.932 873.088 451.505C874.367 498.594 881.533 544.915 894.329 589.701C913.011 574.602 932.973 559.887 954.47 546.067C947.816 517.276 943.849 487.974 942.441 458.159C953.446 449.074 960.484 435.254 960.484 419.899ZM515.698 723.546C488.314 723.546 466.178 745.555 466.178 772.939C466.178 800.322 488.314 822.331 515.698 822.331C523.375 822.331 530.669 820.539 537.195 817.34C571.104 833.591 602.966 853.553 632.141 877.225C647.624 859.951 662.595 842.548 677.31 824.762C641.482 795.587 602.198 771.275 560.228 751.953C552.422 735.191 535.403 723.546 515.698 723.546ZM385.435 862.894C402.198 850.738 415.89 834.615 425.615 815.549C441.226 784.199 443.913 748.754 432.78 715.613L367.265 737.238C372.384 752.977 371.104 769.74 363.682 784.583C359.076 793.796 352.294 801.601 344.232 807.36C303.158 734.423 295.736 643.572 332.716 561.422L269.632 533.143C213.074 659.567 239.818 802.369 326.062 900.13C243.785 875.562 168.033 829.624 107.636 765.133C107.764 763.726 107.892 762.318 107.892 760.91C107.892 760.782 107.892 760.782 107.892 760.782C107.892 735.191 89.9777 713.821 66.0493 708.447C62.2105 707.679 58.2438 707.168 54.1491 707.168C52.6136 707.168 51.0781 707.295 49.5426 707.423C22.0314 709.727 0.27832 732.759 0.27832 760.91C0.27832 790.725 24.4626 814.781 54.1491 814.781C54.405 814.781 54.9169 814.781 55.1728 814.653C56.4524 814.653 57.8599 814.525 59.0116 814.397C125.294 885.031 209.236 937.366 304.565 966.029C358.052 982.152 412.691 990.213 466.945 990.213C481.917 990.213 497.016 989.573 511.987 988.294C549.607 960.655 582.365 930.328 612.691 898.339C564.706 913.31 515.442 920.731 466.689 920.731C435.211 906.144 408.084 886.31 385.435 862.894Z" fill="url(#paint0_linear_1_2845)"/>
<path d="M1290.62 777.034C1330.28 777.034 1369.7 770.38 1407.19 757.584C1415.51 762.83 1425.36 766.029 1435.98 766.029C1465.67 766.029 1489.72 741.973 1489.72 712.286C1489.72 682.472 1465.67 658.416 1435.98 658.416C1413.59 658.416 1394.39 672.107 1386.2 691.685C1357.92 701.538 1328.24 707.168 1298.04 707.936C1322.61 677.098 1345.13 644.468 1365.35 610.175C1369.06 603.905 1372.64 597.379 1376.22 590.853C1377.37 590.725 1378.53 590.597 1379.68 590.469C1405.01 585.991 1424.21 563.982 1424.21 537.494C1424.21 507.808 1400.02 483.751 1370.34 483.751C1364.19 483.751 1358.05 484.903 1352.42 486.95C1349.73 487.846 1346.92 488.998 1344.36 490.533C1327.85 499.618 1316.47 517.277 1316.47 537.622C1316.47 540.565 1316.72 543.508 1317.23 546.323C1317.49 547.987 1318 549.778 1318.38 551.442C1311.47 564.238 1304.31 576.906 1296.63 589.318C1284.22 535.575 1290.11 478.633 1313.65 428.473H1314.42C1318.38 428.473 1322.22 428.089 1325.93 427.193C1294.07 429.369 1264.13 433.08 1235.98 437.814C1213.07 510.111 1216.66 589.318 1247.62 659.823C1187.99 736.471 1113.91 802.242 1028.05 852.786C994.264 856.496 961.122 862.383 928.237 870.444C933.867 862.127 940.777 854.577 948.711 848.051C971.743 828.857 1000.92 819.772 1030.73 822.587L1037 753.873C988.89 749.395 941.673 763.982 904.437 795.076C872.703 821.436 851.462 856.88 843.144 896.548C812.946 907.68 783.387 920.604 754.724 935.319V782.92C842.121 748.499 922.863 699.874 994.392 638.198C1015.76 619.9 1035.85 600.578 1055.04 580.489C1085.24 587.654 1115.83 591.365 1146.92 591.365C1155.88 591.365 1164.96 591.109 1174.17 590.469L1169.44 521.499C1148.71 522.907 1127.98 522.395 1107.64 519.836C1123.76 499.362 1138.86 478.249 1152.81 456.368C1106.23 469.42 1066.56 485.543 1032.78 501.794C1010.9 527.513 987.226 551.954 961.634 574.858C958.819 565.261 956.26 555.792 954.085 546.067C932.716 559.887 912.626 574.474 893.944 589.702C897.143 600.45 900.47 611.199 904.181 621.691C867.328 648.947 828.301 672.747 787.226 692.837C751.526 732.888 718.768 774.219 685.371 814.782V831.672C682.684 829.369 679.868 827.066 677.053 824.89C662.338 842.549 647.367 860.079 631.884 877.354C636.106 880.553 640.073 884.008 644.04 887.462C633.419 891.557 622.799 895.268 612.178 898.595C581.852 930.457 549.094 960.911 511.474 988.55C570.847 983.816 629.452 969.228 685.371 945.3V1123.8H412.05V1347.35C373.662 1360.91 346.023 1397.38 346.023 1440.25C346.023 1494.63 390.169 1538.77 444.68 1538.77C499.062 1538.77 543.208 1494.63 543.208 1440.25C543.208 1398.79 517.36 1363.21 481.148 1348.76V1192.77H685.882V1416.7C647.879 1430.39 620.623 1466.73 620.623 1509.47C620.623 1563.85 664.769 1608 719.152 1608C773.662 1608 817.808 1563.85 817.808 1509.47C817.808 1467.76 791.705 1432.18 755.108 1417.73V1192.77H959.843V1348.76C923.503 1363.34 897.655 1398.79 897.655 1440.25C897.655 1494.63 941.801 1538.77 996.311 1538.77C1050.69 1538.77 1094.84 1494.63 1094.84 1440.25C1094.84 1397.38 1067.2 1360.78 1028.94 1347.35V1123.8H754.98V1014.14C940.521 906.656 1163.17 889.894 1360.1 960.015C1366.62 982.408 1387.23 998.659 1411.54 998.659C1441.35 998.659 1465.41 974.603 1465.41 944.788C1465.41 915.102 1441.35 891.045 1411.54 891.045C1403.35 891.045 1395.54 892.837 1388.63 896.164C1314.55 868.908 1236.49 852.786 1156.26 848.947C1185.95 825.658 1213.84 800.45 1240.2 773.707C1256.84 775.754 1273.73 777.034 1290.62 777.034ZM507.379 1439.99C507.379 1474.67 479.228 1502.82 444.552 1502.82C409.875 1502.82 381.724 1474.54 381.724 1439.99C381.724 1405.31 409.875 1377.16 444.552 1377.16C479.228 1377.16 507.379 1405.44 507.379 1439.99ZM781.852 1509.34C781.852 1544.02 753.701 1572.17 719.024 1572.17C684.347 1572.17 656.196 1543.89 656.196 1509.34C656.196 1477.61 679.74 1451.51 710.195 1447.16H727.725C758.307 1451.38 781.852 1477.61 781.852 1509.34ZM1058.88 1439.99C1058.88 1474.67 1030.73 1502.82 996.055 1502.82C961.378 1502.82 933.228 1474.54 933.228 1439.99C933.228 1405.31 961.378 1377.16 996.055 1377.16C1030.73 1377.16 1058.88 1405.44 1058.88 1439.99Z" fill="url(#paint1_linear_1_2845)"/>
</g>
<defs>
<linearGradient id="paint0_linear_1_2845" x1="522.63" y1="-152.366" x2="522.63" y2="1194.69" gradientUnits="userSpaceOnUse">
<stop stop-color="#43785F"/>
<stop offset="1" stop-color="#F2F3F5" stop-opacity="0"/>
</linearGradient>
<linearGradient id="paint1_linear_1_2845" x1="782.807" y1="244.882" x2="782.807" y2="1851.95" gradientUnits="userSpaceOnUse">
<stop stop-color="#43785F"/>
<stop offset="1" stop-color="#F2F3F5" stop-opacity="0"/>
</linearGradient>
</defs>
</svg>
