<svg width="1756" height="4219" viewBox="0 0 1756 4219" fill="none" xmlns="http://www.w3.org/2000/svg">
<path d="M329.061 2935.57C340.282 2812.06 365.452 2670.42 403.791 2514.56C443.853 2354 491.236 2197.67 545.614 2046.65C602.213 1888.13 665.402 1734.99 734.815 1588.09C799.857 1448.82 872.103 1317.25 950.9 1194.58C1023.14 1083.09 1091.71 999.1 1153.82 944.915C1213.66 892.578 1265.25 870.28 1307.09 878.367C1348.94 886.455 1378.78 924.581 1396.01 992.168C1413.77 1061.49 1417.12 1159.81 1405.9 1283.31C1394.68 1406.82 1369.51 1549.04 1331.17 1704.32C1291.12 1864.9 1243.7 2021.24 1189.27 2172.23C1132.78 2330.81 1069.67 2483.99 1000.3 2630.91C935.238 2770.15 862.994 2901.72 784.219 3024.41C711.515 3135.91 643.175 3219.9 581.147 3274.08C521.223 3326.42 469.637 3348.72 427.869 3340.63C386.102 3332.54 356.179 3294.42 338.957 3226.83C321.113 3157.51 317.84 3059.19 329.061 2935.68V2935.57ZM323.061 2944.81C276.306 3455.7 482.651 3495.91 783.284 3034.47C1083.92 2573.02 1365.38 1785.08 1411.82 1274.19C1458.27 763.295 1252.31 723.089 952.069 1184.53C651.825 1645.98 369.971 2433.92 323.45 2944.81H323.061Z" stroke="url(#paint0_linear_1_2849)" stroke-width="0.481044"/>
<path d="M277.006 2921.59C297.89 2786.07 333.735 2632.75 383.607 2467.19C435.083 2297.52 493.774 2132.86 559.327 1974.21C626.552 1810.13 700.322 1652.14 780.244 1501.1C853.739 1360.34 934.505 1228.27 1021.81 1106.08C1101.53 996.442 1174.78 916.608 1239.53 868.892C1301.87 822.678 1354.08 808.237 1394.06 825.798C1434.03 843.359 1460.14 892.114 1471.44 970.678C1483.12 1051.55 1478.45 1162 1457.57 1297.41C1436.68 1432.81 1400.84 1586.24 1350.96 1751.8C1299.49 1921.51 1240.77 2086.17 1175.17 2244.79C1107.97 2408.87 1034.22 2566.85 954.328 2717.9C880.66 2858.65 799.739 2990.72 712.293 3112.91C632.576 3222.56 559.327 3302.39 494.65 3350.1C432.31 3396.32 380.1 3410.76 340.125 3393.2C300.15 3375.64 274.045 3326.88 262.746 3248.32C251.057 3167.45 255.655 3056.99 276.616 2921.59H277.006ZM270.071 2930.6C183.652 3490.83 380.88 3577.59 710.579 3124C1040.28 2670.42 1377.69 1848.74 1464.11 1288.4C1550.53 728.056 1353.3 641.405 1023.52 1094.99C693.747 1548.58 356.489 2370.26 270.071 2930.6Z" stroke="url(#paint1_linear_1_2849)" stroke-width="0.481044"/>
<path d="M227.444 2895.25C264.581 2727.75 311.514 2565.39 367.709 2410C431.132 2232.49 501.677 2060.76 578.963 1895.76C656.906 1727.64 741.39 1566.39 831.984 1412.83C914.077 1272.28 1003.47 1141.48 1099.34 1021.63C1185.76 915.454 1263.45 841.397 1330.23 801.191C1394.83 762.371 1446.58 756.826 1484.14 784.554C1521.7 812.282 1543.05 871.898 1547.72 961.783C1552.55 1054.9 1539.15 1176.56 1507.9 1323.41C1470.8 1490.92 1423.86 1653.28 1367.64 1808.65C1304.52 1986.08 1234.26 2157.73 1157.24 2322.66C1079.27 2490.76 994.791 2652.01 904.22 2805.59C822.127 2946.14 732.734 3076.94 636.861 3196.79C550.442 3302.97 472.751 3377.03 405.892 3417.23C341.37 3456.05 289.628 3461.6 252.068 3433.87C214.509 3406.14 193.157 3346.52 188.482 3256.64C183.651 3163.52 197.054 3041.86 228.301 2895.02L227.444 2895.25ZM221.21 2903.68C91.9331 3511.05 276.926 3647.61 634.211 3208.92C991.496 2770.24 1385.33 1922.33 1514.6 1315.09C1643.88 707.839 1458.89 571.162 1101.6 1009.85C744.319 1448.53 349.552 2296.67 220.509 2903.91L221.21 2903.68Z" stroke="url(#paint2_linear_1_2849)" stroke-width="0.481044"/>
<path d="M181.547 2855.85C230.668 2678.24 289.434 2506.84 357.267 2343.34C508.347 1975.8 686.682 1634.47 888.947 1325.72C979.077 1186.97 1076.59 1059.2 1180.54 943.643C1273.19 842.898 1354.78 775.888 1423.04 744.694C1489.05 714.539 1539.93 718.814 1574.14 757.402C1608.35 795.991 1624.4 866.813 1621.67 968.021C1618.95 1072.81 1596.11 1205.79 1553.88 1363.15C1504.76 1540.75 1445.99 1712.15 1378.16 1875.66C1302.94 2059.37 1220.64 2236.51 1131.68 2406.19C1042.98 2576.52 947.76 2739.15 846.478 2893.28C756.323 3032.03 658.784 3159.8 554.806 3275.35C462.232 3376.1 380.644 3443.11 312.304 3474.3C246.38 3504.46 195.417 3500.18 161.286 3461.6C127.155 3423.01 111.025 3352.18 113.674 3250.98C116.48 3146.19 139.312 3013.21 181.547 2855.85V2855.85ZM173.754 2864.05C-0.952855 3515.09 167.988 3705.03 551.144 3288.29C934.299 2871.56 1386.5 2005.87 1561.2 1354.95C1735.91 704.026 1566.97 513.972 1183.81 930.704C800.658 1347.44 348.461 2213.02 173.754 2864.05V2864.05Z" stroke="url(#paint3_linear_1_2849)" stroke-width="0.481044"/>
<path d="M139.623 2802.47C201.093 2616.16 272.054 2437.06 351.89 2266.74C439.194 2078.47 533.553 1897.6 634.523 1725C733.704 1554.32 839.469 1392.3 951.287 1239.76C1061.78 1089.56 1167.61 966.403 1265.87 872.82C1364.13 779.237 1448.91 721.123 1517.88 700.212C1584.5 679.993 1633.6 695.013 1663.83 744.924C1694.07 794.834 1703.96 877.21 1693.21 989.509C1681.99 1105.85 1649.1 1249.46 1595.26 1416.99C1533.85 1603.35 1462.88 1782.45 1382.99 1952.72C1295.74 2141.02 1201.4 2321.89 1100.43 2494.46C1001.25 2665.14 895.489 2827.16 783.671 2979.7C673.174 3129.9 567.352 3253.06 469.089 3346.64C370.826 3440.22 286.044 3498.33 217.08 3519.25C150.455 3539.46 101.362 3524.45 71.1275 3474.53C40.8927 3424.62 30.9963 3342.25 41.7499 3229.95C52.8931 3113.61 85.8553 2970 139.623 2802.47V2802.47ZM131.831 2810.21C-90.6441 3500.76 58.5037 3746.85 464.881 3359.92C871.258 2973 1380.89 2099.33 1603.36 1408.78C1825.84 718.235 1676.69 472.147 1270.31 859.071C863.933 1246 354.072 2119.66 131.597 2810.21H131.831Z" stroke="url(#paint4_linear_1_2849)" stroke-width="0.481044"/>
<path d="M103.622 2734.65C177.654 2541.03 261.125 2355.68 353.371 2180.09C452.652 1989.26 559.028 1806.78 672.005 1633.5C781.268 1464.46 897.161 1305.14 1019.08 1156.34C1138.7 1011.58 1251.69 895.35 1354.78 810.894C1457.88 726.439 1545.23 679.301 1613.96 669.827C1680.35 660.815 1726.95 687.619 1752.35 749.43C1777.76 811.241 1780.72 905.055 1761.24 1028.1C1740.98 1155.19 1697.34 1309.08 1631.57 1484.34C1557.51 1677.94 1474.04 1863.29 1381.82 2038.91C1282.49 2229.68 1176.12 2412.16 1063.19 2585.5C953.841 2754.57 837.842 2913.9 715.799 3062.66C596.262 3207.42 483.271 3323.65 380.099 3408.1C276.927 3492.56 189.807 3539.93 120.999 3549.4C54.6076 3558.41 8.00864 3531.61 -17.3948 3469.8C-42.7983 3407.99 -45.8373 3314.17 -26.2782 3191.13C-6.0178 3064.04 37.62 2910.15 103.388 2734.89L103.622 2734.65ZM94.8947 2741.82C-176.907 3467.03 -52.2272 3771.23 374.722 3422.2C801.672 3073.17 1367.87 2202.5 1639.99 1477.41C1912.1 752.318 1786.8 447.77 1360.24 796.799C933.676 1145.83 367.086 2016.49 94.8947 2741.59V2741.82Z" stroke="url(#paint5_linear_1_2849)" stroke-width="0.481044"/>
<path d="M73.6223 2651.47C160.321 2452.42 256.436 2262.73 361.242 2083.85C472.346 1892.54 590.587 1710.59 715.41 1538.88C834.405 1373.86 960.099 1219.8 1091.79 1077.55C1219.89 940.293 1339.12 833.655 1446.34 760.522C1553.57 687.388 1642.17 652.035 1709.89 655.501C1775.26 658.967 1818.36 698.249 1838.15 772.422C1857.94 846.595 1853.27 951.615 1824.28 1084.94C1794.36 1223.58 1739.5 1385.33 1661.34 1567.53C1574.66 1766.57 1478.57 1956.26 1373.8 2135.15C1262.74 2326.49 1144.52 2508.43 1019.71 2680.12C900.701 2845.17 774.98 2999.23 643.252 3141.45C515.222 3278.71 395.919 3385.34 288.772 3458.48C181.626 3531.61 92.9476 3566.96 25.2311 3563.5C-40.1478 3560.03 -83.318 3520.75 -103.033 3446.58C-122.748 3372.4 -118.15 3267.38 -89.1624 3134.06C-59.2393 2995.99 -4.38035 2833.67 73.7781 2651.47H73.6223ZM64.9727 2657.48C-258.259 3410.76 -161.009 3776.08 282.383 3473.38C725.774 3170.68 1346.91 2314.8 1669.91 1561.52C1992.91 808.237 1895.89 442.918 1452.5 745.618C1009.11 1048.32 388.048 1904.19 64.661 2657.48H64.9727Z" stroke="url(#paint6_linear_1_2849)" stroke-width="0.481044"/>
<path d="M51.2573 2552.8C150.657 2350.22 259.498 2158.19 376.983 1978.14C499.509 1788.7 629.231 1609.8 765.515 1442.29C893.516 1283.59 1028.27 1137.25 1168.93 1004.18C1304.6 877.096 1429.28 782.474 1539.46 722.627C1649.65 662.78 1738.79 641.753 1804.41 659.083C1867.76 676.067 1906.57 728.404 1919.81 815.401C1933.06 902.398 1919.81 1018.39 1880.85 1161.19C1840.56 1309.08 1774.17 1479.03 1683.47 1666.19C1584.2 1868.73 1475.51 2060.75 1358.21 2240.86C1235.67 2430.27 1105.94 2609.17 969.678 2776.71C841.677 2935.41 706.927 3081.75 566.262 3214.82C430.595 3341.9 305.915 3436.53 195.73 3496.37C85.5442 3556.22 -3.60169 3577.25 -69.2143 3559.92C-132.567 3542.93 -171.452 3490.6 -184.699 3403.6C-197.946 3316.6 -184.699 3200.6 -145.736 3057.8C-105.449 2909.92 -39.0574 2739.97 51.647 2552.8H51.2573ZM42.6076 2557.66C-332.6 3331.74 -267.299 3759.21 188.405 3511.74C644.108 3264.26 1317.85 2435.77 1693.13 1661.34C2068.42 886.917 2003.04 459.787 1547.26 707.261C1091.47 954.735 417.503 1783.23 42.2181 2557.66H42.6076Z" stroke="url(#paint7_linear_1_2849)" stroke-width="0.481044"/>
<path d="M37.5426 2438.77C149.421 2234.85 270.786 2042.79 400.75 1863.99C534.183 1678.97 674.846 1505.75 822.011 1345.24C958.214 1195.19 1101.18 1059.12 1249.9 937.983C1392.11 823.95 1521.07 743.654 1633.13 699.289C1745.18 654.924 1833.55 649.147 1895.89 682.652C1956.13 714.655 1989.4 781.087 1995.56 880.447C2001.71 979.806 1979.43 1106.89 1930.1 1258.36C1878.98 1415.02 1800.67 1590.98 1697.26 1781.38C1585.38 1985.3 1464.02 2177.37 1334.05 2356.16C1200.6 2541.16 1059.94 2714.37 912.793 2874.91C776.742 3024.53 633.964 3160.22 485.454 3281.02C343.163 3395.05 214.276 3475.34 102.22 3519.71C-9.83555 3564.07 -98.9814 3569.85 -161.321 3536.92C-221.557 3504.92 -254.831 3438.49 -261.065 3339.13C-267.299 3239.77 -244.856 3112.68 -195.53 2961.22C-144.178 2804.55 -65.8634 2628.59 37.5426 2438.77ZM28.3475 2442.35C-399.225 3229.83 -370.081 3719.47 93.3368 3536C556.755 3352.53 1279.04 2565.51 1706.38 1777.8C2133.72 990.089 2104.81 500.686 1641.39 684.154C1177.97 867.622 455.609 1654.64 28.3475 2442.35V2442.35Z" stroke="url(#paint8_linear_1_2849)" stroke-width="0.481044"/>
<path d="M33.491 2307.52C157.552 2104.65 291.165 1915.09 433.323 1740.25C576.953 1562.25 727.898 1397.65 885.286 1247.38C1028.55 1108.86 1178.55 986.29 1334.05 880.677C1481.64 782.358 1613.57 718.929 1726.17 692.241C1838.77 665.553 1925.27 676.991 1983.32 726.901C2039.43 774.732 2066.7 855.722 2064.44 967.79C2062.18 1079.86 2030.55 1217 1970.23 1375.86C1907.89 1540.26 1817.5 1720.61 1701.55 1911.94C1577.51 2114.81 1443.93 2304.37 1301.79 2479.21C1158.15 2657.18 1007.21 2821.78 849.83 2972.08C706.438 3110.62 556.306 3233.2 400.672 3338.78C253.083 3437.1 121.156 3500.53 8.55511 3527.22C-104.046 3553.91 -190.62 3542.47 -248.596 3492.56C-304.624 3444.73 -331.898 3363.74 -329.638 3251.67C-327.378 3139.6 -295.585 3002.46 -235.349 2843.14C-173.009 2678.74 -82.5389 2498.39 33.3352 2307.06L33.491 2307.52ZM24.1401 2309.26C-455.331 3100.67 -466.786 3652.57 -0.71795 3542.01C465.35 3431.44 1231.35 2700.23 1710.82 1908.82C2190.29 1117.41 2201.75 565.5 1735.68 676.066C1269.61 786.632 503.611 1518.31 24.1401 2309.72V2309.26Z" stroke="url(#paint9_linear_1_2849)" stroke-width="0.481044"/>
<path d="M39.8809 2161.49C175.522 1962.19 320.825 1777.88 474.623 1610.05C627.393 1441.87 787.487 1288.84 953.86 1151.95C1103.35 1027.3 1259.42 920.889 1420.55 833.771C1572.11 754.053 1705.6 710.15 1817.34 703.217C1929.09 696.285 2012.16 726.324 2064.83 793.681C2115.56 858.38 2135.59 954.273 2124.37 1078.7C2113.15 1203.13 2071.22 1349.75 1999.69 1514.61C1925.74 1685.37 1823.19 1868.15 1695 2057.63C1559.33 2256.87 1414.03 2441.18 1260.26 2609.07C1107.48 2777.22 947.385 2930.25 781.023 3067.16C631.533 3191.67 475.454 3297.93 314.332 3384.88C162.846 3464.6 29.3611 3508.5 -82.383 3515.44C-194.127 3522.37 -277.195 3492.33 -329.872 3424.97C-380.601 3360.27 -400.627 3264.38 -389.406 3139.95C-378.185 3015.52 -336.262 2868.91 -264.727 2704.04C-190.776 2533.28 -88.3052 2350.5 39.9589 2161.03L39.8809 2161.49ZM30.7638 2161.03C-499.67 2947.12 -554.996 3560.15 -92.8248 3531.38C369.347 3502.61 1173.84 2843.14 1704.27 2057.51C2234.71 1271.88 2289.96 659.546 1827.79 687.736C1365.61 715.926 561.041 1375.86 30.6858 2161.49L30.7638 2161.03Z" stroke="url(#paint10_linear_1_2849)" stroke-width="0.481044"/>
<path d="M57.9586 1998.93C204.537 1805.97 360.841 1629.88 525.507 1472.21C686.429 1316.8 854.629 1178.62 1028.82 1058.72C1198.46 942.488 1359.85 855.144 1508.53 799.11C1662.35 741.343 1795.84 719.045 1905.09 734.064C2014.34 749.084 2092.96 799.803 2138.86 885.183C2183.04 967.559 2194.81 1078.59 2173.85 1215.03C2152.89 1351.48 2100.29 1506.64 2017.53 1676.01C1931.81 1851.28 1817.34 2034.17 1677.23 2220.07C1530.67 2413.06 1374.37 2589.14 1209.69 2746.79C1048.8 2902.22 880.625 3040.41 706.448 3160.28C536.806 3276.51 375.424 3363.85 226.744 3419.89C72.8423 3477.66 -60.5648 3499.95 -169.893 3484.93C-279.222 3469.91 -357.692 3419.19 -403.667 3333.82C-447.773 3251.44 -459.539 3140.41 -438.578 3003.97C-417.616 2867.52 -365.017 2712.36 -282.261 2542.98C-196.543 2367.72 -82.072 2184.83 57.9586 1998.93V1998.93ZM49.0752 1997.66C-530.373 2765.73 -633.623 3438.49 -181.582 3500.18C270.459 3561.88 1106.51 2989.41 1685.88 2221.34C2265.25 1453.26 2368.58 780.509 1916.54 719.391C1464.5 658.274 628.367 1229.59 49.0752 1997.66Z" stroke="url(#paint11_linear_1_2849)" stroke-width="0.481044"/>
<path d="M88.6626 1821.82C396.934 1461.37 741.101 1174.12 1108.85 970.331C1283.25 875.246 1447.36 810.547 1596.51 778.198C1750.95 744.693 1882.57 747.35 1987.69 786.169C2092.81 824.989 2165.2 897.66 2202.84 1002.1C2239.07 1103.08 2241.8 1229.24 2210.24 1377.13C2178.68 1525.01 2115.17 1687.45 2020.96 1859.48C1923.48 2037.64 1797.32 2218.45 1645.99 2397.18C1489.55 2580.92 1323.31 2745.52 1148.91 2889.35C981.11 3029.21 806.179 3149.34 625.72 3248.67C451.246 3343.75 287.215 3408.45 137.989 3440.8C-16.3799 3474.3 -147.995 3471.65 -253.193 3432.83C-358.392 3394.01 -430.628 3321.34 -468.265 3216.89C-504.578 3115.92 -507.228 2989.75 -475.668 2841.87C-444.109 2693.99 -380.444 2531.2 -285.999 2359.51C-188.516 2181.36 -62.3555 2000.55 88.8964 1821.82H88.6626ZM80.3247 1818.7C-545.411 2558.12 -700.091 3286.79 -265.194 3447.73C169.704 3608.67 1029.45 3139.49 1655.11 2400.53C2280.76 1661.57 2435.44 932.436 2000.62 771.497C1565.8 610.557 705.748 1079.74 80.2468 1818.7H80.3247Z" stroke="url(#paint12_linear_1_2849)" stroke-width="0.481044"/>
<path d="M132.844 1630.61C298.223 1458.78 473.446 1308.78 656.498 1182.34C829.596 1061.23 1009.51 962.802 1194.18 888.188C1371.54 817.481 1536.42 778.661 1684.17 772.654C1837.14 766.646 1964.7 795.76 2064.21 860.922C2163.72 926.083 2227.85 1021.28 2256.06 1145.48C2283.25 1265.41 2275.54 1406.59 2233.07 1565.22C2190.6 1723.85 2115.56 1891.83 2010.05 2064.67C1900.96 2243.52 1763.5 2419.59 1601.88 2588.16C1436.48 2759.94 1261.26 2909.93 1078.23 3036.43C905.124 3157.52 725.212 3255.95 540.547 3330.58C363.19 3401.29 198.301 3440.11 50.556 3446.12C-102.488 3452.12 -229.973 3422.43 -329.483 3357.85C-428.993 3293.26 -493.125 3197.49 -521.411 3073.29C-548.607 2953.36 -540.815 2812.18 -498.034 2653.55C-455.253 2494.92 -380.601 2326.94 -275.013 2154.1C-165.919 1975.25 -28.4597 1799.18 133.156 1630.61H132.844ZM125.364 1625.3C-542.997 2322.31 -752.302 3104.13 -342.185 3371.6C67.9332 3639.06 942.404 3290.72 1610.76 2593.7C2279.12 1896.69 2488.43 1114.87 2078.31 847.404C1668.2 579.943 793.724 928.278 125.286 1625.3H125.364Z" stroke="url(#paint13_linear_1_2849)" stroke-width="0.481044"/>
<path d="M191.21 1426.23C364.153 1269.57 546.809 1137.8 736.683 1032.72C913.781 933.116 1097.06 859.59 1283.87 813.206C1462.16 770.458 1625.73 760.637 1769.96 784.091C1919.27 809.046 2041.53 868.084 2132.78 959.934C2224.03 1051.78 2279.2 1172.05 2296.42 1316.13C2313.26 1454.77 2294.32 1611.32 2240.24 1779.65C2186.16 1947.98 2099.98 2120.01 1983.09 2291.35C1862.38 2468.58 1714.56 2637.14 1543.75 2792.31C1370.81 2948.97 1188.15 3080.74 998.276 3185.82C821.161 3285.21 637.883 3358.54 451.088 3404.75C272.797 3447.5 109.233 3457.32 -35.0838 3433.87C-184.699 3409.95 -306.573 3351.49 -397.901 3259.07C-489.229 3166.64 -544.244 3046.94 -561.543 2902.87C-578.297 2764.23 -559.439 2607.68 -505.281 2439.35C-451.124 2271.02 -364.627 2098.99 -248.13 1927.65C-127.347 1750.42 20.4766 1581.85 191.288 1426.69L191.21 1426.23ZM183.495 1419.18C-522.892 2060.4 -789.551 2889.36 -411.928 3271.31C-34.3045 3653.27 844.686 3441.96 1551.23 2800.28C2257.77 2158.6 2524.43 1329.64 2146.81 947.687C1769.19 565.731 890.662 777.043 183.729 1418.72L183.495 1419.18Z" stroke="url(#paint14_linear_1_2849)" stroke-width="0.481044"/>
<path d="M264.46 1210.3C443.66 1071.67 632.283 961.638 827.154 882.063C1006.59 807.424 1191.09 762.819 1377.22 749.083C1554.19 737.53 1714.09 759.828 1852.57 815.4C1995.95 873.167 2109.72 963.399 2191.38 1084.83C2273.05 1206.25 2316.76 1350.55 2322.06 1515.42C2327.2 1674.05 2296.19 1844.12 2229.95 2020.88C2163.72 2197.65 2065.69 2371.99 1938.44 2539.29C1806.67 2712.59 1649.18 2870.41 1470.89 3008.7C1291.69 3147.33 1103.07 3257.36 908.196 3336.93C728.763 3411.57 544.256 3456.18 358.125 3469.91C181.158 3481.47 21.1788 3459.17 -117.215 3403.6C-260.597 3345.83 -374.367 3255.6 -455.954 3134.17C-537.541 3012.75 -582.114 2867.87 -587.101 2703.58C-592.244 2544.95 -561.23 2374.88 -495.072 2198.11C-428.914 2021.35 -330.729 1847 -203.478 1679.71C-71.7074 1506.41 85.7005 1348.59 264.46 1210.3V1210.3ZM257.758 1200.24C-481.514 1772.49 -808.096 2643.38 -471.072 3145.49C-134.047 3647.61 737.93 3590.88 1477.05 3018.41C2216.16 2445.93 2542.67 1575.62 2206.03 1073.5C1869.4 571.392 997.03 628.119 257.914 1200.59L257.758 1200.24Z" stroke="url(#paint15_linear_1_2849)" stroke-width="0.481044"/>
<path d="M352.982 984.196C536.884 866.75 729.575 782.237 926.975 732.447C1107.17 685.636 1290.68 673.327 1472.99 695.822C1646.06 718.929 1800.28 776.696 1930.26 866.235C2065.07 959.356 2168.71 1083.67 2238.14 1235.94C2306.91 1384.32 2339.53 1563.01 2330.63 1742.56C2322.84 1920.6 2278.97 2103.95 2200.34 2287.54C2121.72 2471.12 2012.15 2645.69 1874.77 2806.52C1732.64 2973 1566.66 3117.19 1381.67 3235.15C1197.76 3352.58 1005.07 3437.09 807.673 3486.9C627.474 3533.71 443.967 3546.01 261.654 3523.52C88.5055 3500.42 -65.6296 3442.65 -195.608 3353.11C-330.496 3259.99 -434.058 3135.67 -503.488 2983.4C-572.242 2835.02 -604.814 2656.31 -595.829 2476.78C-588.037 2298.74 -544.165 2115.28 -465.227 1931.81C-386.29 1748.34 -277.039 1573.65 -139.736 1412.83C11.1796 1238.67 176.827 1094.57 352.982 984.196V984.196ZM347.449 971.487C-418.005 1459.73 -805.758 2364.71 -518.528 2993.34C-231.297 3621.96 621.978 3735.53 1387.51 3247.51C2153.04 2759.49 2540.8 1854.51 2253.49 1225.66C1966.18 596.809 1112.9 483.701 347.449 971.487Z" stroke="url(#paint16_linear_1_2849)" stroke-width="0.481044"/>
<path d="M457.712 750.124C644.752 656.805 839.472 601.575 1036.54 585.95C1215.95 570.328 1395.93 593.918 1570.71 655.963C1737.31 716.85 1882.41 811.934 2001.95 938.791C2125.69 1070.04 2216.47 1229.71 2271.8 1413.17C2327.07 1596.16 2344.19 1799.45 2320.97 1996.97C2299.07 2193.95 2241.64 2389.79 2150.24 2578.34C2058.83 2766.89 1938.28 2939.61 1791.78 3090.96C1633.37 3252.62 1460.18 3379.88 1277.48 3468.88C1090.44 3562.19 895.719 3617.42 698.655 3633.05C519.219 3648.67 339.21 3625.08 164.403 3563.04C-2.19966 3502.15 -147.296 3407.06 -266.754 3280.21C-390.732 3148.96 -481.592 2989.29 -536.919 2805.82C-592.187 2622.84 -609.284 2419.53 -586.012 2222.03C-564.115 2025.04 -506.684 1829.21 -415.356 1640.66C-324.029 1452.11 -203.323 1279.39 -56.9028 1128.04C101.505 966.362 274.692 839.103 457.4 750.124H457.712ZM452.803 735.104C-331.042 1123.88 -781.291 2054.51 -552.426 2813.56C-323.561 3572.62 497.609 3872.78 1281.77 3483.66C2065.92 3094.54 2516.25 2164.26 2287.38 1405.2C2058.52 646.143 1237.35 345.985 453.114 735.104H452.803Z" stroke="url(#paint17_linear_1_2849)" stroke-width="0.481044"/>
<path d="M578.263 510.275C767.032 444.321 961.559 422.183 1154.91 444.652C1332.12 464.211 1505.92 527.265 1669.21 631.239C1826.38 732.909 1959.95 868.547 2066 1034.22C2172.73 1197.85 2249.82 1398.83 2290.11 1618.48C2329.18 1834.98 2329.45 2062.86 2290.89 2279.57C2253.72 2494.81 2181.8 2701.27 2077.92 2893.28C1974.05 3085.3 1842.59 3253.17 1687.75 3392.16C1523.11 3538.68 1343.88 3645.68 1156.7 3709.19C967.929 3775.14 773.402 3797.28 580.055 3774.81C402.836 3755.25 229.038 3692.2 65.7519 3588.22C-91.4222 3486.55 -224.985 3350.92 -331.041 3185.24C-440.681 3013.32 -516.19 2816.8 -555.23 2600.52C-594.257 2384.01 -594.526 2156.15 -556.009 1939.43C-518.761 1724.19 -446.915 1517.73 -343.041 1325.72C-239.167 1133.7 -107.631 966.289 47.2059 827.301C211.839 680.76 391.074 573.762 578.263 510.275V510.275ZM575.068 492.598C-219.375 766.992 -732.431 1713.33 -570.971 2606.41C-409.511 3499.49 365.45 4000.8 1159.89 3726.4C1954.34 3452.01 2467.39 2505.67 2305.93 1612.12C2144.47 718.583 1369.51 218.204 575.068 492.598V492.598Z" stroke="url(#paint18_linear_1_2849)" stroke-width="0.481044"/>
<path d="M714.943 267.307C903.94 232.054 1095.66 246.919 1281.14 311.21C1454.42 370.409 1618.93 476.132 1766.54 623.152C1907.35 762.563 2027.65 942.844 2120.16 1153.11C2212.3 1363.05 2270.88 1601.43 2291.44 1850.05C2311.99 2098.67 2293.98 2350.97 2238.76 2587.7C2183.33 2824.94 2096.01 3043.04 1982.08 3228.79C1862.94 3424.56 1720.61 3586.29 1562.14 3705.95C1220.09 3964.24 827.62 4035.7 453.584 3907.79C280.327 3848.59 115.844 3742.87 -31.7314 3595.85C-172.547 3456.44 -292.843 3276.16 -385.354 3065.89C-477.534 2855.97 -536.158 2617.61 -556.753 2368.99C-577.348 2120.37 -559.369 1868.06 -504.189 1631.3C-448.617 1394 -361.133 1175.9 -247.037 990.204C-127.904 794.437 14.4276 632.711 172.899 513.048C342.406 384.131 526.023 300.922 715.177 267.307H714.943ZM713.463 246.973C-81.3694 391.621 -657.233 1342.93 -572.295 2371.65C-487.357 3400.36 226.589 4116.79 1021.73 3972.03C1816.88 3827.26 2392.43 2876.07 2307.49 1847.35C2222.55 818.636 1508.37 102.208 713.229 246.973H713.463Z" stroke="url(#paint19_linear_1_2849)" stroke-width="0.481044"/>
<path d="M867.284 24.1068C1191.78 24.4121 1506.23 191.012 1757.36 495.686C2008.5 800.36 2180.88 1224.38 2245.31 1695.91C2309.74 2167.44 2262.25 2657.49 2110.89 3083.06C1959.54 3508.63 1713.61 3843.54 1414.78 4031.06C1071.61 4241.77 686.166 4242.72 342.522 4033.72C-1.12244 3824.71 -275.08 3422.71 -419.594 2915.4C-564.108 2408.09 -567.452 1836.64 -428.896 1325.68C-290.34 814.732 -21.1277 405.745 320.019 187.934C493.154 79.3171 679.288 23.5967 867.284 24.1068V24.1068ZM867.284 1C586.014 1 311.061 124.661 77.1934 356.346C-156.674 588.031 -338.951 917.334 -446.589 1302.61C-554.226 1687.89 -582.389 2111.84 -527.516 2520.85C-472.643 2929.86 -337.199 3305.55 -138.311 3600.43C60.5772 3895.31 313.976 4096.13 589.841 4177.48C865.706 4258.84 1151.65 4217.09 1411.51 4057.5C1671.37 3897.91 1893.47 3627.66 2049.74 3280.92C2206 2934.18 2289.41 2526.52 2289.41 2109.5C2289.41 1832.61 2252.63 1558.43 2181.16 1302.61C2109.69 1046.8 2004.94 814.357 1872.88 618.565C1740.82 422.773 1584.05 267.462 1411.51 161.5C1238.97 55.5379 1054.04 1 867.284 1V1Z" stroke="url(#paint20_linear_1_2849)" stroke-width="0.481044"/>
<defs>
<linearGradient id="paint0_linear_1_2849" x1="867.408" y1="863.109" x2="867.408" y2="3355.89" gradientUnits="userSpaceOnUse">
<stop stop-color="#DCDCDC"/>
<stop offset="0.919792" stop-color="#E8E8E8"/>
</linearGradient>
<linearGradient id="paint1_linear_1_2849" x1="867.091" y1="804.241" x2="867.091" y2="3414.72" gradientUnits="userSpaceOnUse">
<stop stop-color="#DCDCDC"/>
<stop offset="0.919792" stop-color="#E8E8E8"/>
</linearGradient>
<linearGradient id="paint2_linear_1_2849" x1="867.907" y1="752.859" x2="867.907" y2="3465.94" gradientUnits="userSpaceOnUse">
<stop stop-color="#DCDCDC"/>
<stop offset="0.919792" stop-color="#E8E8E8"/>
</linearGradient>
<linearGradient id="paint3_linear_1_2849" x1="867.479" y1="709.741" x2="867.479" y2="3509.29" gradientUnits="userSpaceOnUse">
<stop stop-color="#DCDCDC"/>
<stop offset="0.919792" stop-color="#E8E8E8"/>
</linearGradient>
<linearGradient id="paint4_linear_1_2849" x1="867.596" y1="675.905" x2="867.596" y2="3543.09" gradientUnits="userSpaceOnUse">
<stop stop-color="#DCDCDC"/>
<stop offset="0.919792" stop-color="#E8E8E8"/>
</linearGradient>
<linearGradient id="paint5_linear_1_2849" x1="867.472" y1="652.219" x2="867.472" y2="3566.84" gradientUnits="userSpaceOnUse">
<stop stop-color="#DCDCDC"/>
<stop offset="0.919792" stop-color="#E8E8E8"/>
</linearGradient>
<linearGradient id="paint6_linear_1_2849" x1="867.391" y1="639.232" x2="867.391" y2="3579.77" gradientUnits="userSpaceOnUse">
<stop stop-color="#DCDCDC"/>
<stop offset="0.919792" stop-color="#E8E8E8"/>
</linearGradient>
<linearGradient id="paint7_linear_1_2849" x1="867.882" y1="637.005" x2="867.882" y2="3581.96" gradientUnits="userSpaceOnUse">
<stop stop-color="#DCDCDC"/>
<stop offset="0.919792" stop-color="#E8E8E8"/>
</linearGradient>
<linearGradient id="paint8_linear_1_2849" x1="867.317" y1="645.627" x2="867.317" y2="3574.51" gradientUnits="userSpaceOnUse">
<stop stop-color="#DCDCDC"/>
<stop offset="0.919792" stop-color="#E8E8E8"/>
</linearGradient>
<linearGradient id="paint9_linear_1_2849" x1="867.48" y1="661.97" x2="867.48" y2="3556.1" gradientUnits="userSpaceOnUse">
<stop stop-color="#DCDCDC"/>
<stop offset="0.919792" stop-color="#E8E8E8"/>
</linearGradient>
<linearGradient id="paint10_linear_1_2849" x1="867.497" y1="686.8" x2="867.497" y2="3532.35" gradientUnits="userSpaceOnUse">
<stop stop-color="#DCDCDC"/>
<stop offset="0.919792" stop-color="#E8E8E8"/>
</linearGradient>
<linearGradient id="paint11_linear_1_2849" x1="867.467" y1="714.911" x2="867.467" y2="3504.74" gradientUnits="userSpaceOnUse">
<stop stop-color="#DCDCDC"/>
<stop offset="0.919792" stop-color="#E8E8E8"/>
</linearGradient>
<linearGradient id="paint12_linear_1_2849" x1="867.687" y1="739.873" x2="867.687" y2="3479.35" gradientUnits="userSpaceOnUse">
<stop stop-color="#DCDCDC"/>
<stop offset="0.919792" stop-color="#E8E8E8"/>
</linearGradient>
<linearGradient id="paint13_linear_1_2849" x1="868.064" y1="757.329" x2="868.064" y2="3461.67" gradientUnits="userSpaceOnUse">
<stop stop-color="#DCDCDC"/>
<stop offset="0.919792" stop-color="#E8E8E8"/>
</linearGradient>
<linearGradient id="paint14_linear_1_2849" x1="867.438" y1="757.425" x2="867.438" y2="3461.57" gradientUnits="userSpaceOnUse">
<stop stop-color="#DCDCDC"/>
<stop offset="0.919792" stop-color="#E8E8E8"/>
</linearGradient>
<linearGradient id="paint15_linear_1_2849" x1="867.37" y1="731.134" x2="867.37" y2="3487.86" gradientUnits="userSpaceOnUse">
<stop stop-color="#DCDCDC"/>
<stop offset="0.919792" stop-color="#E8E8E8"/>
</linearGradient>
<linearGradient id="paint16_linear_1_2849" x1="867.5" y1="668.557" x2="867.5" y2="3550.47" gradientUnits="userSpaceOnUse">
<stop stop-color="#DCDCDC"/>
<stop offset="0.919792" stop-color="#E8E8E8"/>
</linearGradient>
<linearGradient id="paint17_linear_1_2849" x1="867.475" y1="564.765" x2="867.475" y2="3654" gradientUnits="userSpaceOnUse">
<stop stop-color="#DCDCDC"/>
<stop offset="0.919792" stop-color="#E8E8E8"/>
</linearGradient>
<linearGradient id="paint18_linear_1_2849" x1="867.48" y1="417.443" x2="867.48" y2="3801.48" gradientUnits="userSpaceOnUse">
<stop stop-color="#DCDCDC"/>
<stop offset="0.919792" stop-color="#E8E8E8"/>
</linearGradient>
<linearGradient id="paint19_linear_1_2849" x1="867.6" y1="228.382" x2="867.6" y2="3990.62" gradientUnits="userSpaceOnUse">
<stop stop-color="#DCDCDC"/>
<stop offset="0.919792" stop-color="#E8E8E8"/>
</linearGradient>
<linearGradient id="paint20_linear_1_2849" x1="867.284" y1="1" x2="867.284" y2="4218" gradientUnits="userSpaceOnUse">
<stop stop-color="#DCDCDC"/>
<stop offset="0.919792" stop-color="#E8E8E8"/>
</linearGradient>
</defs>
</svg>
