<svg width="1374" height="1964" viewBox="0 0 1374 1964" fill="none" xmlns="http://www.w3.org/2000/svg">
<path d="M844.05 93.7826C844.05 120.503 823.56 142.438 797.438 144.718V1228.01L978.328 1408.97L1131.67 1255.56V856.826V854.963L1132.99 853.645L1308.62 677.947C1306.57 673.716 1305.41 668.966 1305.41 663.946C1305.41 646.244 1319.76 631.891 1337.46 631.891C1355.16 631.891 1369.5 646.244 1369.5 663.946C1369.5 681.647 1355.16 696 1337.46 696C1328.07 696 1319.63 691.963 1313.77 685.531L1140.67 858.69V1257.42V1259.29L1139.36 1260.61L983.887 1416.14V1416.39V1954.76C983.887 1957.25 981.873 1959.26 979.387 1959.26C976.902 1959.26 974.887 1957.25 974.887 1954.76V1420.21C974.603 1420.03 974.335 1419.82 974.087 1419.57C973.145 1418.63 972.708 1417.38 972.776 1416.14L789.755 1233.05L788.438 1231.73V1229.87V144.718C762.315 142.438 741.825 120.503 741.825 93.7826C741.825 65.5457 764.707 42.6522 792.938 42.6522C821.168 42.6522 844.05 65.5457 844.05 93.7826ZM454.2 93.7826C454.2 121.932 431.459 144.771 403.35 144.912V1229.87V1231.26L402.568 1232.4L276.225 1417.78V1954.76C276.225 1957.25 274.21 1959.26 271.725 1959.26C269.24 1959.26 267.225 1957.25 267.225 1954.76V1416.39V1415L268.006 1413.86L394.35 1228.48V799.342L236.761 641.692L235.444 640.374V638.511V235.537L59.1982 59.224C53.4 65.0223 45.3909 68.6087 36.5437 68.6087C18.8447 68.6087 4.5 54.2558 4.5 36.5543C4.5 18.8529 18.8447 4.5 36.5437 4.5C54.2426 4.5 68.5874 18.8529 68.5874 36.5543C68.5874 42.1541 67.1519 47.4188 64.6287 52C64.8113 52.1342 64.9861 52.2839 65.1512 52.4491L243.126 230.493L244.444 231.81V233.674V636.647L394.35 786.611V144.169C370.283 140.022 351.975 119.04 351.975 93.7826C351.975 65.5457 374.857 42.6522 403.087 42.6522C431.318 42.6522 454.2 65.5457 454.2 93.7826ZM597.749 496.076C583.227 493.025 572.325 480.138 572.325 464.707C572.325 447.005 586.67 432.652 604.369 432.652C622.068 432.652 636.412 447.005 636.412 464.707C636.412 481.607 623.336 495.456 606.749 496.674L606.75 1342L780.714 1465.71L782.606 1467.06V1469.38V1937.8C782.606 1940.29 780.591 1942.3 778.106 1942.3C775.621 1942.3 773.606 1940.29 773.606 1937.8V1471.7L602.743 1350.2L558.019 1394.94V1959C558.019 1961.49 556.004 1963.5 553.519 1963.5C551.033 1963.5 549.019 1961.49 549.019 1959V1393.08V1391.21L550.336 1389.89L597.75 1342.46L597.749 496.076Z" stroke="#EDEDED" stroke-opacity="0.5" stroke-width="9" stroke-linecap="round"/>
</svg>
