<svg width="200" height="235" viewBox="0 0 200 235" fill="none" xmlns="http://www.w3.org/2000/svg">
<g filter="url(#filter0_d_7_3117)">
<path d="M95.7145 132.181C93.1789 132.181 91.1177 130.11 91.1177 127.561C91.1177 125.013 93.1789 122.941 95.7145 122.941C98.25 122.941 100.311 125.013 100.311 127.561C100.311 130.11 98.25 132.181 95.7145 132.181ZM95.7145 124.616C94.0991 124.616 92.7837 125.938 92.7837 127.561C92.7837 129.185 94.0991 130.507 95.7145 130.507C97.3299 130.507 98.6453 129.185 98.6453 127.561C98.6453 125.938 97.3299 124.616 95.7145 124.616Z" fill="#FFF9EF"/>
<path d="M108.631 128.937C106.096 128.937 104.035 126.865 104.035 124.317C104.035 121.768 106.096 119.697 108.631 119.697C111.167 119.697 113.228 121.768 113.228 124.317C113.228 126.865 111.167 128.937 108.631 128.937ZM108.631 121.371C107.016 121.371 105.701 122.693 105.701 124.317C105.701 125.94 107.016 127.262 108.631 127.262C110.247 127.262 111.562 125.94 111.562 124.317C111.562 122.693 110.247 121.371 108.631 121.371Z" fill="#FFF9EF"/>
<path d="M82.9171 128.937C80.3816 128.937 78.3203 126.865 78.3203 124.317C78.3203 121.768 80.3816 119.697 82.9171 119.697C85.4527 119.697 87.5139 121.768 87.5139 124.317C87.5139 126.865 85.4527 128.937 82.9171 128.937ZM82.9171 121.371C81.3018 121.371 79.9864 122.693 79.9864 124.317C79.9864 125.94 81.3018 127.262 82.9171 127.262C84.5325 127.262 85.8479 125.94 85.8479 124.317C85.8479 122.693 84.5325 121.371 82.9171 121.371Z" fill="#FFF9EF"/>
<path d="M116.1 96.6C120.038 96.7935 123.865 97.6145 127.481 99.0139C127.27 100.102 127.009 101.171 126.69 102.214C117.252 98.4598 106.386 99.1076 97.3868 104.341V109.476H110.154V120.799H106.933V112.717H97.3888V124.643H94.1642V112.717H84.6199V120.066H81.3993V109.476H94.1662V101.116C90.9071 102.519 87.4433 103.232 83.9551 103.232C81.4196 103.232 78.8739 102.858 76.3789 102.1C71.851 100.727 67.8663 98.2052 64.7491 94.7973C64.6417 94.6873 64.5383 94.5732 64.439 94.4592C64.4126 93.9336 64.3984 93.404 64.3984 92.8683C64.3984 91.9639 64.4349 91.0676 64.5079 90.1795C64.5748 90.1734 64.6376 90.1693 64.7045 90.1693C64.8768 90.1693 65.047 90.1897 65.2112 90.2263C65.7665 91.0228 66.3665 91.7724 67.0069 92.4772C69.8485 95.608 73.4603 97.8304 77.3802 99.0098C73.359 94.4327 72.1125 87.7371 74.7514 81.8095L77.6923 83.1356C75.9756 86.9835 76.3161 91.2407 78.2314 94.6608C78.6145 94.3899 78.9286 94.0253 79.1435 93.5935C79.4901 92.9009 79.5468 92.1126 79.3077 91.3772L82.3661 90.3587C82.8789 91.915 82.7593 93.5792 82.0256 95.0458C81.5797 95.9401 80.9372 96.6937 80.1569 97.2621C81.2129 98.3641 82.4816 99.2909 83.9409 99.9733C86.7217 99.9773 89.5349 99.4681 92.2367 98.4068C90.4977 96.9076 88.558 95.6854 86.4542 94.7749L87.727 91.7989C90.066 92.8092 92.2205 94.1536 94.1642 95.7975V86.6942C93.7406 86.3703 93.3109 86.0546 92.8751 85.747C89.9667 86.8449 86.9082 87.401 83.7727 87.401V84.1643C85.6678 84.1643 87.5304 83.93 89.3404 83.4717C85.2563 81.1047 80.8642 79.4161 76.2674 78.4465C73.8312 82.2027 69.7512 84.4026 65.4828 84.5635C65.7888 83.4187 66.1516 82.3004 66.5793 81.2086C68.9081 80.8399 71.091 79.6687 72.6901 77.8395C71.247 77.6561 69.7857 77.538 68.3122 77.4911C68.9061 76.4034 69.5607 75.3543 70.2701 74.3481C74.1575 74.619 77.9456 75.3421 81.5838 76.5073C81.1602 72.965 79.0928 69.8606 76.1094 68.0803C76.9951 67.3531 77.9213 66.6748 78.8841 66.0453C80.6372 67.3286 82.0884 68.9908 83.1221 70.9035C86.0002 68.9256 87.6885 65.5728 87.577 62.0753C88.6188 61.7799 89.6829 61.5395 90.7612 61.3521C91.1584 66.4079 88.6695 71.313 84.3544 73.957C84.6868 75.1588 84.8733 76.4136 84.8875 77.703C88.1283 79.0128 91.2334 80.6831 94.1622 82.7058V60.9427C94.8492 60.8999 95.5384 60.8755 96.2315 60.8755C96.6187 60.8755 97.0037 60.8816 97.3868 60.8999V76.3545C100.186 71.812 102.091 66.8418 103.04 61.6088C104.102 61.8431 105.141 62.1282 106.161 62.4623C105.942 63.6417 105.674 64.8069 105.364 65.9578C106.157 65.7765 106.901 65.4078 107.543 64.872C108.034 64.4626 108.437 63.9778 108.743 63.44C109.736 63.8678 110.701 64.3445 111.641 64.87C111.135 65.8111 110.45 66.6585 109.606 67.3653C108.101 68.6242 106.248 69.3045 104.316 69.3269C102.707 73.8531 100.384 78.1267 97.3868 82.0254V90.0104C99.8595 88.9288 102.194 87.5721 104.367 85.9589C103.384 83.1702 102.886 80.2512 102.886 77.261H106.106C106.106 79.4833 106.422 81.6629 107.043 83.763C111.647 79.6116 115.05 74.3908 117.021 68.6364C117.914 69.4104 118.76 70.2293 119.558 71.097C118.166 74.7127 116.244 78.1185 113.845 81.1882C114.797 81.3064 115.76 81.3329 116.727 81.2657L116.95 84.4963C116.526 84.5269 116.1 84.5391 115.681 84.5391C114.236 84.5391 112.803 84.368 111.394 84.0298C110.5 84.9709 109.562 85.8753 108.569 86.7309C105.227 89.6213 101.469 91.9007 97.3888 93.514V100.641C98.7286 99.9488 100.105 99.3418 101.509 98.8224C101.903 96.9606 102.896 95.3004 104.371 94.064C106.11 92.6116 108.309 91.9272 110.555 92.135L110.261 95.3595C108.865 95.2332 107.507 95.6549 106.432 96.5552C106.06 96.8628 105.739 97.2172 105.474 97.6063C107.002 97.2274 108.555 96.9524 110.127 96.7752C114.128 94.4082 117.584 91.3202 120.361 87.731C118.358 83.1417 118.812 77.7478 121.619 73.5557C122.335 74.507 123.002 75.501 123.612 76.5317C122.369 78.97 122.037 81.781 122.645 84.427C123.054 83.7569 123.441 83.0745 123.808 82.3819C124.224 81.5956 124.611 80.7951 124.968 79.9803C125.077 79.9172 125.195 79.8662 125.314 79.8255C125.874 81.0905 126.36 82.4064 126.759 83.7569C126.666 83.9341 126.573 84.1113 126.476 84.2865C126.273 84.6654 126.062 85.0422 125.845 85.415C124.905 87.0181 123.857 88.5458 122.71 89.9921C124.473 89.9493 126.208 89.5541 127.817 88.8432C127.957 89.9554 128.036 91.0859 128.061 92.2307C126.238 92.8907 124.309 93.2349 122.363 93.2349C121.577 93.2349 120.79 93.1779 120.008 93.0679C118.782 94.3268 117.477 95.5062 116.096 96.5939L116.1 96.6Z" fill="#FFF9EF"/>
<path d="M95.7386 61.8979C97.1233 61.8979 98.2458 60.7698 98.2458 59.3781C98.2458 57.9865 97.1233 56.8584 95.7386 56.8584C94.3539 56.8584 93.2314 57.9865 93.2314 59.3781C93.2314 60.7698 94.3539 61.8979 95.7386 61.8979Z" fill="#FFF9EF"/>
<path d="M88.7767 63.0151C90.1614 63.0151 91.2839 61.8869 91.2839 60.4953C91.2839 59.1037 90.1614 57.9756 88.7767 57.9756C87.392 57.9756 86.2695 59.1037 86.2695 60.4953C86.2695 61.8869 87.392 63.0151 88.7767 63.0151Z" fill="#FFF9EF"/>
<path d="M76.6278 68.8644C78.0124 68.8644 79.1349 67.7363 79.1349 66.3447C79.1349 64.9531 78.0124 63.825 76.6278 63.825C75.2431 63.825 74.1206 64.9531 74.1206 66.3447C74.1206 67.7363 75.2431 68.8644 76.6278 68.8644Z" fill="#FFF9EF"/>
<path d="M68.4554 78.1862C69.8401 78.1862 70.9626 77.0581 70.9626 75.6665C70.9626 74.2749 69.8401 73.1467 68.4554 73.1467C67.0707 73.1467 65.9482 74.2749 65.9482 75.6665C65.9482 77.0581 67.0707 78.1862 68.4554 78.1862Z" fill="#FFF9EF"/>
<path d="M65.3636 85.2155C66.7483 85.2155 67.8708 84.0874 67.8708 82.6958C67.8708 81.3042 66.7483 80.176 65.3636 80.176C63.9789 80.176 62.8564 81.3042 62.8564 82.6958C62.8564 84.0874 63.9789 85.2155 65.3636 85.2155Z" fill="#FFF9EF"/>
<path d="M67.2096 92.479V92.4871C67.2096 93.8641 66.1152 94.9844 64.7511 95.0068C64.7369 95.0109 64.7187 95.0109 64.7045 95.0109C63.3182 95.0109 62.1953 93.8804 62.1953 92.4891C62.1953 91.1692 63.2067 90.0875 64.4917 89.9816C64.5647 89.9735 64.6336 89.9714 64.7065 89.9714C64.895 89.9714 65.0795 89.9938 65.2578 90.0325C66.3746 90.2831 67.2096 91.2833 67.2137 92.483L67.2096 92.479Z" fill="#FFF9EF"/>
<path d="M105.028 63.2607C106.412 63.2607 107.535 62.1325 107.535 60.7409C107.535 59.3493 106.412 58.2212 105.028 58.2212C103.643 58.2212 102.521 59.3493 102.521 60.7409C102.521 62.1325 103.643 63.2607 105.028 63.2607Z" fill="#FFF9EF"/>
<path d="M110.847 65.5847C112.231 65.5847 113.354 64.4565 113.354 63.0649C113.354 61.6733 112.231 60.5452 110.847 60.5452C109.462 60.5452 108.339 61.6733 108.339 63.0649C108.339 64.4565 109.462 65.5847 110.847 65.5847Z" fill="#FFF9EF"/>
<path d="M118.739 71.8227C120.123 71.8227 121.246 70.6946 121.246 69.3029C121.246 67.9113 120.123 66.7832 118.739 66.7832C117.354 66.7832 116.231 67.9113 116.231 69.3029C116.231 70.6946 117.354 71.8227 118.739 71.8227Z" fill="#FFF9EF"/>
<path d="M123.473 76.8993C124.858 76.8993 125.981 75.7712 125.981 74.3796C125.981 72.988 124.858 71.8599 123.473 71.8599C122.089 71.8599 120.966 72.988 120.966 74.3796C120.966 75.7712 122.089 76.8993 123.473 76.8993Z" fill="#FFF9EF"/>
<path d="M129.142 92.7228C130.527 92.7228 131.65 91.5947 131.65 90.2031C131.65 88.8115 130.527 87.6833 129.142 87.6833C127.758 87.6833 126.635 88.8115 126.635 90.2031C126.635 91.5947 127.758 92.7228 129.142 92.7228Z" fill="#FFF9EF"/>
<path d="M128.009 103.618C129.393 103.618 130.516 102.489 130.516 101.098C130.516 99.7063 129.393 98.5781 128.009 98.5781C126.624 98.5781 125.501 99.7063 125.501 101.098C125.501 102.489 126.624 103.618 128.009 103.618Z" fill="#FFF9EF"/>
<path d="M86.2332 95.3674C87.5059 95.3674 88.5377 94.3305 88.5377 93.0514C88.5377 91.7723 87.5059 90.7354 86.2332 90.7354C84.9605 90.7354 83.9287 91.7723 83.9287 93.0514C83.9287 94.3305 84.9605 95.3674 86.2332 95.3674Z" fill="#FFF9EF"/>
<path d="M104.668 78.8245C105.941 78.8245 106.973 77.7875 106.973 76.5084C106.973 75.2293 105.941 74.1924 104.668 74.1924C103.396 74.1924 102.364 75.2293 102.364 76.5084C102.364 77.7875 103.396 78.8245 104.668 78.8245Z" fill="#FFF9EF"/>
<path d="M128.587 82.0145C128.587 83.2571 127.691 84.2898 126.512 84.4976C126.37 84.5241 126.226 84.5384 126.076 84.5384C124.832 84.5384 123.798 83.6237 123.605 82.424C123.579 82.2936 123.569 82.1551 123.569 82.0166C123.569 81.0653 124.094 80.2383 124.868 79.8105C124.988 79.7413 125.115 79.6863 125.245 79.6435C125.502 79.5477 125.786 79.4968 126.076 79.4968C127.462 79.4968 128.585 80.6233 128.585 82.0166L128.587 82.0145Z" fill="#FFF9EF"/>
<path d="M148.661 118.258L123.067 142.95C122.46 143.536 122.44 144.506 123.023 145.116L123.025 145.118C123.608 145.728 124.572 145.748 125.18 145.162L150.773 120.47C151.38 119.884 151.4 118.914 150.817 118.304L150.816 118.303C150.233 117.692 149.268 117.673 148.661 118.258Z" fill="#FFF9EF"/>
<path d="M149.573 124.991L129.721 144.143C129.114 144.729 129.094 145.699 129.677 146.309L129.679 146.311C130.261 146.921 131.226 146.941 131.834 146.355L151.685 127.202C152.292 126.617 152.312 125.647 151.729 125.037L151.728 125.035C151.145 124.425 150.18 124.405 149.573 124.991Z" fill="#FFF9EF"/>
<path d="M150.953 131.264L135.899 145.788C135.292 146.374 135.272 147.343 135.855 147.954L135.857 147.955C136.44 148.565 137.405 148.585 138.012 147.999L153.066 133.475C153.673 132.889 153.693 131.92 153.11 131.309L153.109 131.308C152.526 130.698 151.561 130.678 150.953 131.264Z" fill="#FFF9EF"/>
<path d="M120.23 142.154C94.6676 154.091 63.9857 143.405 51.381 117.788C38.7824 92.1792 49.0603 60.8546 74.3448 47.8016C99.6394 34.7425 130.627 44.4956 144.112 69.3732C144.554 70.188 144.233 71.2126 143.408 71.6302C142.618 72.0294 141.657 71.7259 141.236 70.9458C128.594 47.6305 99.5482 38.4906 75.8406 50.7287C52.1411 62.9649 42.5076 92.3259 54.3179 116.33C66.1321 140.342 94.8885 150.357 118.847 139.17C119.65 138.796 120.603 139.126 121 139.918C121.415 140.747 121.069 141.761 120.23 142.152V142.154Z" fill="#FFF9EF"/>
<path d="M144.981 78.6247C146.022 78.6247 146.866 77.7766 146.866 76.7303C146.866 75.6841 146.022 74.8359 144.981 74.8359C143.94 74.8359 143.096 75.6841 143.096 76.7303C143.096 77.7766 143.94 78.6247 144.981 78.6247Z" fill="#FFF9EF"/>
<path d="M49.4478 156.926H53.9858C55.0499 156.926 55.9781 157.115 56.7706 157.496C57.5611 157.877 58.1793 158.411 58.6191 159.101C59.0609 159.792 59.2818 160.594 59.2818 161.509C59.2818 162.593 58.988 163.507 58.4002 164.255C57.8124 165 57.0138 165.528 56.0045 165.838L60.1655 171.708H57.1598L53.4406 166.113H51.9286V171.708H49.4498V156.926H49.4478ZM53.8824 159.079H51.9286V164.041H53.8824C54.7357 164.041 55.4228 163.827 55.9417 163.397C56.4605 162.967 56.72 162.358 56.72 161.57C56.72 160.782 56.4605 160.169 55.9417 159.733C55.4228 159.297 54.7377 159.079 53.8824 159.079Z" fill="#FFF9EF"/>
<path d="M61.1104 164.318C61.1104 163.221 61.2988 162.204 61.6779 161.267C62.0569 160.33 62.5919 159.517 63.2851 158.829C63.9783 158.138 64.787 157.605 65.7112 157.224C66.6354 156.843 67.6448 156.653 68.7372 156.653C69.8297 156.653 70.8593 156.843 71.7835 157.224C72.7078 157.603 73.5165 158.138 74.2096 158.829C74.9028 159.519 75.4379 160.332 75.8169 161.267C76.1959 162.204 76.3844 163.221 76.3844 164.318C76.3844 165.416 76.1959 166.433 75.8169 167.37C75.4379 168.307 74.9069 169.122 74.2198 169.82C73.5327 170.517 72.724 171.059 71.7937 171.446C70.8613 171.833 69.8439 172.026 68.7372 172.026C67.6306 172.026 66.6152 171.833 65.6909 171.446C64.7667 171.059 63.96 170.517 63.275 169.82C62.5879 169.124 62.0569 168.307 61.6779 167.37C61.2988 166.433 61.1104 165.416 61.1104 164.318ZM63.7371 164.318C63.7371 165.333 63.9499 166.237 64.3776 167.032C64.8052 167.826 65.3971 168.449 66.1531 168.902C66.9091 169.352 67.7705 169.578 68.7372 169.578C69.704 169.578 70.5837 169.354 71.3316 168.902C72.0815 168.452 72.6693 167.828 73.0969 167.032C73.5246 166.237 73.7374 165.331 73.7374 164.318C73.7374 163.306 73.5266 162.4 73.107 161.605C72.6875 160.811 72.1017 160.187 71.3518 159.735C70.6019 159.285 69.7304 159.059 68.7352 159.059C67.7401 159.059 66.907 159.285 66.151 159.735C65.395 160.185 64.8032 160.809 64.3755 161.605C63.9479 162.402 63.7351 163.306 63.7351 164.318H63.7371Z" fill="#FFF9EF"/>
<path d="M88.8053 167.443C88.8053 168.429 88.5803 169.233 88.1324 169.861C87.6845 170.488 87.0602 170.952 86.2616 171.254C85.4631 171.557 84.5449 171.708 83.5092 171.708H78.8232V156.926H83.2579C84.6442 156.926 85.7752 157.231 86.6508 157.844C87.5264 158.458 87.9642 159.391 87.9642 160.643C87.9642 161.389 87.7615 162.02 87.3541 162.534C86.9487 163.047 86.3873 163.432 85.6739 163.684C86.5839 163.937 87.3338 164.371 87.9216 164.984C88.5094 165.597 88.8033 166.416 88.8033 167.445L88.8053 167.443ZM83.0897 158.975H81.3041V162.862H83.0897C83.7768 162.862 84.3362 162.692 84.7699 162.354C85.2036 162.016 85.4205 161.537 85.4205 160.918C85.4205 160.299 85.2036 159.82 84.7699 159.482C84.3362 159.144 83.7747 158.975 83.0897 158.975ZM81.3041 169.641H83.3633C84.2044 169.641 84.8976 169.439 85.4428 169.038C85.99 168.636 86.2616 168.021 86.2616 167.19C86.2616 166.359 85.988 165.789 85.4428 165.396C84.8956 165.002 84.2024 164.805 83.3633 164.805H81.3041V169.641Z" fill="#FFF9EF"/>
<path d="M91.3467 156.926H93.8255V166.746C93.8255 167.646 94.0707 168.38 94.5612 168.942C95.0517 169.504 95.7651 169.787 96.7056 169.787C97.646 169.787 98.3757 169.506 98.8601 168.942C99.3445 168.378 99.5857 167.646 99.5857 166.746V156.926H102.087V166.852C102.087 167.936 101.856 168.869 101.394 169.651C100.931 170.433 100.297 171.03 99.4924 171.445C98.6858 171.861 97.7595 172.069 96.7076 172.069C95.6557 172.069 94.7294 171.861 93.9228 171.445C93.1181 171.03 92.4857 170.431 92.0317 169.651C91.5757 168.871 91.3487 167.938 91.3487 166.852V156.926H91.3467Z" fill="#FFF9EF"/>
<path d="M105.236 156.926H109.774C110.838 156.926 111.766 157.115 112.559 157.496C113.349 157.877 113.967 158.411 114.407 159.101C114.849 159.792 115.07 160.594 115.07 161.509C115.07 162.593 114.776 163.507 114.188 164.255C113.6 165 112.802 165.528 111.793 165.838L115.954 171.708H112.948L109.229 166.113H107.717V171.708H105.238V156.926H105.236ZM109.671 159.079H107.717V164.041H109.671C110.524 164.041 111.211 163.827 111.73 163.397C112.249 162.967 112.508 162.358 112.508 161.57C112.508 160.782 112.249 160.169 111.73 159.733C111.211 159.297 110.526 159.079 109.671 159.079Z" fill="#FFF9EF"/>
<path d="M128.476 156.928H130.914V172.45L120.176 161.784V171.71H117.738V156.188L128.476 166.854V156.928Z" fill="#FFF9EF"/>
<path d="M144.191 171.709L142.488 167.908H137.089L135.409 171.709H132.614L139.801 156.104L147.008 171.709H144.193H144.191ZM139.799 161.108L137.802 165.797H141.815L139.799 161.108Z" fill="#FFF9EF"/>
<path d="M90.0366 175.788H91.1331V183.832H94.6841V184.871H90.0366V175.788Z" fill="#FFF9EF"/>
<path d="M96.09 180.278L95.5873 179.512C95.8103 179.347 96.1183 179.184 96.5095 179.019C96.9007 178.854 97.3729 178.773 97.9242 178.773C98.6133 178.773 99.1727 178.932 99.6024 179.246C100.032 179.561 100.249 180.009 100.249 180.588V184.87H99.2153V184.065C99.0268 184.377 98.7431 184.609 98.364 184.766C97.985 184.923 97.6162 185 97.2534 185C96.8906 185 96.5541 184.925 96.24 184.774C95.9258 184.623 95.6745 184.405 95.4839 184.118C95.2934 183.833 95.2002 183.487 95.2002 183.079C95.2002 182.501 95.4049 182.034 95.8143 181.684C96.2237 181.333 96.7933 181.158 97.5249 181.158C97.9202 181.158 98.2587 181.203 98.5384 181.295C98.8181 181.386 99.043 181.486 99.2153 181.6V180.73C99.2153 180.323 99.0836 180.046 98.8221 179.899C98.5586 179.753 98.2424 179.679 97.8736 179.679C97.4256 179.679 97.0507 179.753 96.7507 179.899C96.4487 180.046 96.2298 180.172 96.092 180.276L96.09 180.278ZM96.246 183.028C96.246 183.374 96.3636 183.639 96.6007 183.827C96.8379 184.012 97.1439 184.106 97.5229 184.106C97.9952 184.106 98.3965 183.963 98.7228 183.678C99.0491 183.393 99.2133 183.012 99.2133 182.535V182.315C98.9721 182.195 98.7268 182.107 98.4776 182.057C98.2283 182.006 97.9668 181.979 97.6911 181.979C97.1925 181.979 96.8257 182.073 96.5946 182.258C96.3616 182.444 96.246 182.702 96.246 183.03V183.028Z" fill="#FFF9EF"/>
<path d="M107.93 181.885C107.93 182.524 107.796 183.078 107.528 183.545C107.261 184.011 106.906 184.372 106.464 184.622C106.02 184.873 105.528 184.999 104.987 184.999C104.547 184.999 104.154 184.899 103.805 184.702C103.457 184.502 103.175 184.217 102.96 183.846V184.871H101.926V174.751H102.96V179.927C103.175 179.554 103.457 179.269 103.805 179.072C104.154 178.872 104.547 178.774 104.987 178.774C105.528 178.774 106.02 178.901 106.464 179.151C106.908 179.402 107.263 179.758 107.528 180.223C107.796 180.685 107.93 181.241 107.93 181.889V181.885ZM106.884 181.885C106.884 181.426 106.791 181.037 106.606 180.718C106.422 180.398 106.176 180.155 105.87 179.99C105.564 179.825 105.228 179.744 104.857 179.744C104.555 179.744 104.259 179.825 103.967 179.99C103.673 180.155 103.434 180.398 103.244 180.718C103.055 181.037 102.96 181.426 102.96 181.885C102.96 182.343 103.055 182.732 103.244 183.052C103.432 183.372 103.673 183.614 103.967 183.779C104.259 183.944 104.557 184.026 104.857 184.026C105.228 184.026 105.564 183.944 105.87 183.779C106.176 183.614 106.422 183.372 106.606 183.052C106.791 182.732 106.884 182.343 106.884 181.885Z" fill="#FFF9EF"/>
<path d="M109.595 183.04C109.775 183.317 109.996 183.555 110.26 183.753C110.521 183.952 110.839 184.05 111.208 184.05C111.5 184.05 111.731 183.983 111.899 183.849C112.067 183.714 112.151 183.531 112.151 183.297C112.151 183.089 112.084 182.914 111.95 182.771C111.816 182.628 111.646 182.508 111.441 182.408C111.234 182.309 111.016 182.217 110.782 182.129C110.525 182.025 110.264 181.903 110.002 181.761C109.739 181.618 109.52 181.433 109.343 181.203C109.167 180.974 109.078 180.685 109.078 180.339C109.078 179.993 109.169 179.691 109.356 179.457C109.54 179.223 109.781 179.049 110.079 178.937C110.375 178.825 110.683 178.768 111.001 178.768C111.474 178.768 111.905 178.88 112.292 179.104C112.68 179.331 112.963 179.606 113.144 179.936L112.317 180.467C112.153 180.243 111.948 180.056 111.703 179.909C111.457 179.762 111.18 179.689 110.87 179.689C110.655 179.689 110.468 179.736 110.314 179.832C110.158 179.927 110.081 180.074 110.081 180.274C110.081 180.516 110.209 180.714 110.462 180.864C110.716 181.017 111.001 181.156 111.32 181.286C111.664 181.425 111.978 181.573 112.262 181.734C112.546 181.893 112.773 182.087 112.939 182.311C113.107 182.535 113.19 182.826 113.19 183.18C113.19 183.7 113.004 184.132 112.629 184.478C112.254 184.824 111.761 184.997 111.151 184.997C110.756 184.997 110.397 184.926 110.079 184.784C109.761 184.641 109.491 184.458 109.272 184.231C109.054 184.007 108.887 183.777 108.776 183.543L109.589 183.038L109.595 183.04Z" fill="#FFF9EF"/>
</g>
<defs>
<filter id="filter0_d_7_3117" x="0" y="0" width="199.535" height="235" filterUnits="userSpaceOnUse" color-interpolation-filters="sRGB">
<feFlood flood-opacity="0" result="BackgroundImageFix"/>
<feColorMatrix in="SourceAlpha" type="matrix" values="0 0 0 0 0 0 0 0 0 0 0 0 0 0 0 0 0 0 127 0" result="hardAlpha"/>
<feOffset dy="4"/>
<feGaussianBlur stdDeviation="23"/>
<feComposite in2="hardAlpha" operator="out"/>
<feColorMatrix type="matrix" values="0 0 0 0 1 0 0 0 0 1 0 0 0 0 1 0 0 0 0.54 0"/>
<feBlend mode="normal" in2="BackgroundImageFix" result="effect1_dropShadow_7_3117"/>
<feBlend mode="normal" in="SourceGraphic" in2="effect1_dropShadow_7_3117" result="shape"/>
</filter>
</defs>
</svg>
