<svg width="35" height="35" viewBox="0 0 35 35" fill="none" xmlns="http://www.w3.org/2000/svg">
<g filter="url(#filter0_b_7_3237)">
<path fill-rule="evenodd" clip-rule="evenodd" d="M6 0C2.68629 0 0 2.68629 0 6V29C0 32.3137 2.68629 35 6 35H29C32.3137 35 35 32.3137 35 29V6C35 2.68629 32.3137 0 29 0H6ZM17.5095 19.4688C18.0618 19.4688 18.5095 19.021 18.5095 18.4688C18.5095 17.9165 18.0618 17.4688 17.5095 17.4688H9C8.44771 17.4688 8 17.9165 8 18.4688C8 19.021 8.44772 19.4688 9 19.4688H17.5095ZM24.1685 12C24.1685 12.5523 23.7208 13 23.1685 13H9C8.44771 13 8 12.5523 8 12C8 11.4477 8.44771 11 9 11H23.1685C23.7208 11 24.1685 11.4477 24.1685 12ZM26.4022 25.9375C26.9545 25.9375 27.4022 25.4898 27.4022 24.9375C27.4022 24.3852 26.9545 23.9375 26.4022 23.9375H9C8.44772 23.9375 8 24.3852 8 24.9375C8 25.4898 8.44772 25.9375 9 25.9375H26.4022Z" fill="white" fill-opacity="0.43"/>
<path fill-rule="evenodd" clip-rule="evenodd" d="M6 0C2.68629 0 0 2.68629 0 6V29C0 32.3137 2.68629 35 6 35H29C32.3137 35 35 32.3137 35 29V6C35 2.68629 32.3137 0 29 0H6ZM17.5095 19.4688C18.0618 19.4688 18.5095 19.021 18.5095 18.4688C18.5095 17.9165 18.0618 17.4688 17.5095 17.4688H9C8.44771 17.4688 8 17.9165 8 18.4688C8 19.021 8.44772 19.4688 9 19.4688H17.5095ZM24.1685 12C24.1685 12.5523 23.7208 13 23.1685 13H9C8.44771 13 8 12.5523 8 12C8 11.4477 8.44771 11 9 11H23.1685C23.7208 11 24.1685 11.4477 24.1685 12ZM26.4022 25.9375C26.9545 25.9375 27.4022 25.4898 27.4022 24.9375C27.4022 24.3852 26.9545 23.9375 26.4022 23.9375H9C8.44772 23.9375 8 24.3852 8 24.9375C8 25.4898 8.44772 25.9375 9 25.9375H26.4022Z" fill="#1D1D1D" fill-opacity="0.1"/>
</g>
<defs>
<filter id="filter0_b_7_3237" x="-4.66667" y="-4.66667" width="44.3333" height="44.3333" filterUnits="userSpaceOnUse" color-interpolation-filters="sRGB">
<feFlood flood-opacity="0" result="BackgroundImageFix"/>
<feGaussianBlur in="BackgroundImageFix" stdDeviation="2.33333"/>
<feComposite in2="SourceAlpha" operator="in" result="effect1_backgroundBlur_7_3237"/>
<feBlend mode="normal" in="SourceGraphic" in2="effect1_backgroundBlur_7_3237" result="shape"/>
</filter>
</defs>
</svg>
